<?xml version="1.0" encoding="UTF-8"?>
<svg version="1.1" xmlns="http://www.w3.org/2000/svg" width="1280" height="853">
<path d="M0 0 C422.4 0 844.8 0 1280 0 C1280 281.49 1280 562.98 1280 853 C857.6 853 435.2 853 0 853 C0 571.51 0 290.02 0 0 Z " fill="#FEFEFE" transform="translate(0,0)"/>
<path d="M0 0 C2.39205555 2.35456252 4.43642938 4.93214004 6.55761719 7.53320312 C7.37875 8.34402344 8.19988281 9.15484375 9.04589844 9.99023438 C25.476198 26.62495446 36.36415882 50.02491113 42.43261719 72.34570312 C42.73776245 73.45546509 42.73776245 73.45546509 43.04907227 74.58764648 C45.93231645 85.92690721 45.76657498 97.65580494 45.74511719 109.28320312 C45.74321381 110.34601501 45.74321381 110.34601501 45.74127197 111.43029785 C45.66604251 133.45823023 41.92104653 153.44386401 32.55761719 173.53320312 C32.1309375 174.47808594 31.70425781 175.42296875 31.26464844 176.39648438 C24.79822272 190.07197853 15.94947754 201.75828129 5.91357422 212.98461914 C4.57650105 214.51163663 3.30298618 216.07741507 2.03027344 217.65820312 C-1.93112856 222.26419344 -6.69295289 225.77599394 -11.44238281 229.53320312 C-12.14105469 230.12101562 -12.83972656 230.70882813 -13.55957031 231.31445312 C-29.84614384 244.74929199 -50.63451253 254.1033344 -71.44238281 257.53320312 C-72.64266113 257.73187988 -72.64266113 257.73187988 -73.8671875 257.93457031 C-85.79921679 259.86048726 -97.35500847 261.06103607 -109.44238281 260.53320312 C-110.49941406 260.50226563 -111.55644531 260.47132813 -112.64550781 260.43945312 C-147.10714367 258.70771263 -179.02388316 243.46472416 -203.44238281 219.53320312 C-204.32667969 218.68757813 -205.21097656 217.84195312 -206.12207031 216.97070312 C-214.97213328 208.36273915 -222.05319603 199.07536132 -228.44238281 188.53320312 C-229.03019531 187.59734375 -229.61800781 186.66148437 -230.22363281 185.69726562 C-234.96016888 177.94845882 -238.31527238 170.0210743 -241.44238281 161.53320312 C-241.81234375 160.57027344 -242.18230469 159.60734375 -242.56347656 158.61523438 C-244.84231291 152.32848351 -246.30258604 145.94884673 -247.62988281 139.40820312 C-247.8805249 138.17324097 -247.8805249 138.17324097 -248.13623047 136.91333008 C-253.81234544 107.57699331 -250.10276894 76.99430185 -238.44238281 49.53320312 C-238.15024902 48.84403809 -237.85811523 48.15487305 -237.55712891 47.44482422 C-230.21689129 30.63645017 -219.32119582 15.51471799 -206.44238281 2.53320312 C-205.36923828 1.40398437 -205.36923828 1.40398437 -204.27441406 0.25195312 C-200.87512931 -3.28049948 -200.87512931 -3.28049948 -199.44238281 -4.46679688 C-198.78238281 -4.46679688 -198.12238281 -4.46679688 -197.44238281 -4.46679688 C-197.11238281 -5.45679688 -196.78238281 -6.44679688 -196.44238281 -7.46679688 C-192.32035514 -10.7527529 -187.85314069 -13.5830229 -183.44238281 -16.46679688 C-182.37761719 -17.16675781 -181.31285156 -17.86671875 -180.21582031 -18.58789062 C-123.89473674 -54.43493265 -48.42744223 -44.41287745 0 0 Z " fill="#015F3F" transform="translate(493.4423828125,304.466796875)"/>
<path d="M0 0 C90.6993865 0 90.6993865 0 106.1171875 13.91015625 C115.53026866 23.74743206 117.4999104 35.38309712 117.26953125 48.44140625 C116.83710462 58.82177556 112.28928535 66.72426351 105 74 C102.71918383 75.61230109 100.51930763 76.76605341 98 78 C97.67 78.66 97.34 79.32 97 80 C97.99 80.0928125 97.99 80.0928125 99 80.1875 C103.21916176 81.33018964 106.41374682 83.55549273 110 86 C110.86625 86.556875 111.7325 87.11375 112.625 87.6875 C119.68917163 94.56577238 123.20781931 103.34750816 123.38037109 113.08056641 C123.36246837 121.76989813 123.15075737 129.14825773 119 137 C118.55269531 137.88042969 118.10539062 138.76085937 117.64453125 139.66796875 C114.55597774 145.27373478 111.19244051 149.28471929 106 153 C105.46375 153.42796875 104.9275 153.8559375 104.375 154.296875 C78.3245164 173.13695689 16.53561249 163 0 163 C0 109.21 0 55.42 0 0 Z " fill="#035E3E" transform="translate(924,333)"/>
<path d="M0 0 C13.2 0 26.4 0 40 0 C45.41191112 10.1179208 50.66202686 20.25012443 55.5625 30.625 C59.05402636 38.01670685 62.67866933 45.28960821 66.57080078 52.47753906 C70.42888074 59.66799019 73.89948911 67.04075612 77.37109375 74.42382812 C77.81453125 75.36419922 78.25796875 76.30457031 78.71484375 77.2734375 C79.10792725 78.11310059 79.50101074 78.95276367 79.90600586 79.81787109 C81.04364768 82.19868844 81.04364768 82.19868844 83 85 C83.29132813 84.38705078 83.58265625 83.77410156 83.8828125 83.14257812 C93.66833839 62.57143328 93.66833839 62.57143328 98.125 53.75 C101.00860194 48.04176548 103.7774158 42.28672159 106.5 36.5 C109.33957231 30.47131334 112.21417526 24.46400351 115.1875 18.5 C115.48398437 17.90251953 115.78046875 17.30503906 116.0859375 16.68945312 C118.91933775 11.04121201 121.96808424 5.55851222 125 0 C137.21 0 149.42 0 162 0 C162 53.79 162 107.58 162 163 C151.44 163 140.88 163 130 163 C129.67 129.01 129.34 95.02 129 60 C127.35 63.96 125.7 67.92 124 72 C122.75924528 74.60547645 121.5091288 77.17832526 120.19140625 79.7421875 C119.49744378 81.11159547 118.80359964 82.48106341 118.10986328 83.85058594 C117.76062805 84.53648804 117.41139282 85.22239014 117.05157471 85.92907715 C115.33930238 89.3011475 113.65319111 92.68621882 111.96484375 96.0703125 C111.29375003 97.41282553 110.62252601 98.75527343 109.95117188 100.09765625 C109.61915771 100.76168457 109.28714355 101.42571289 108.94506836 102.10986328 C103.63004557 112.73990885 98.31502279 123.36995443 93 134 C87.67642463 134.46100773 82.37925487 134.72131627 77.03515625 134.58203125 C76.15996338 134.56116455 75.28477051 134.54029785 74.38305664 134.51879883 C71.34386208 133.85715674 70.24378415 132.70697352 68.3125 130.3125 C67.49091786 128.2276249 66.73030179 126.11857515 66 124 C64.89267694 121.5620731 63.72568111 119.15758492 62.55493164 116.74951172 C61.22857294 114.0183791 59.93758502 111.27230186 58.6484375 108.5234375 C55.80941173 102.53784227 52.74075424 96.68856942 49.62573242 90.84326172 C45.60786294 83.29830356 41.79100433 75.66080551 38 68 C37.01 66.02 36.02 64.04 35 62 C34.67 95.33 34.34 128.66 34 163 C22.78 163 11.56 163 0 163 C0 109.21 0 55.42 0 0 Z " fill="#035F3E" transform="translate(737,333)"/>
<path d="M0 0 C85.11590296 0 85.11590296 0 100 11 C101.03125 11.721875 102.0625 12.44375 103.125 13.1875 C113.3630335 22.32029124 118.19987618 34.63774067 119.23828125 48.0859375 C119.5521544 61.99547402 117.14455035 74.16350642 108 85 C107.53851562 85.63164062 107.07703125 86.26328125 106.6015625 86.9140625 C102.48248744 92.31886041 96.94056752 95.80645962 91 99 C90.34 99 89.68 99 89 99 C92.51443967 105.59884242 96.18497363 112.09700772 99.9375 118.5625 C100.39431152 119.34963379 100.85112305 120.13676758 101.32177734 120.94775391 C102.88066936 123.63213571 104.44035073 126.3160581 106 129 C108.31600122 132.98642304 110.62979393 136.97410186 112.9392395 140.96432495 C113.91531503 142.6492048 114.89402864 144.3325555 115.87280273 146.01586914 C116.48067627 147.06637451 117.0885498 148.11687988 117.71484375 149.19921875 C118.25230225 150.12565186 118.78976074 151.05208496 119.34350586 152.0065918 C121.33889189 155.61240287 123.15698948 159.31397896 125 163 C111.8 163 98.6 163 85 163 C81.7515625 156.9053125 81.7515625 156.9053125 78.4375 150.6875 C74.24614203 142.83185784 70.02506181 134.99739513 65.6640625 127.234375 C65.31745071 126.61637527 64.97083893 125.99837555 64.61372375 125.36164856 C62.94258869 122.38469633 61.26375879 119.41244989 59.57397461 116.44604492 C58.97335205 115.37974854 58.37272949 114.31345215 57.75390625 113.21484375 C57.22095947 112.27761475 56.6880127 111.34038574 56.13891602 110.37475586 C55 108 55 108 55 105 C48.4 105 41.8 105 35 105 C35 124.14 35 143.28 35 163 C23.45 163 11.9 163 0 163 C0 109.21 0 55.42 0 0 Z " fill="#025F3D" transform="translate(592,333)"/>
<path d="M0 0 C4.14362787 9.01653425 2.40088984 18.86132026 -0.7578125 27.9453125 C-9.09919029 48.45775726 -27.18838753 58.9175965 -46.671875 67.19140625 C-48.11438482 67.79474568 -49.55707646 68.39765069 -51 69 C-52.07765625 69.46277344 -53.1553125 69.92554688 -54.265625 70.40234375 C-60.88322749 73.11348194 -67.59642794 75.00416557 -74.5 76.8125 C-96.9007622 82.7087528 -125.52618292 91.20325809 -139.125 111.5 C-143.37755358 119.01714017 -145.9248528 126.44098503 -147 135 C-146.50371094 134.16597656 -146.00742187 133.33195313 -145.49609375 132.47265625 C-130.32707976 107.34447937 -109.60443598 95.61538614 -81.66015625 88.01171875 C-59.9892812 82.0215836 -38.4641937 74.82752119 -18.8203125 63.7734375 C-17 63 -17 63 -13 63 C-11.67713795 73.28892705 -15.2417701 81.52263124 -21.23388672 89.6796875 C-35.28968157 107.42320504 -54.80144635 112.38503156 -75.859375 117.39453125 C-99.73173409 123.09641144 -99.73173409 123.09641144 -121 135 C-121.76570313 135.57105469 -122.53140625 136.14210938 -123.3203125 136.73046875 C-132.31121599 144.07669477 -138.47201658 154.01694511 -143.9375 164.125 C-148.37704001 172.15241316 -154.29579127 179.86386085 -162 185 C-164.5625 185.25 -164.5625 185.25 -167 185 C-170.08555775 181.91444225 -169.45361469 178.15979862 -169.59765625 174.00390625 C-169.63684677 173.10059067 -169.67603729 172.19727509 -169.71641541 171.2665863 C-169.84072397 168.36551704 -169.95214715 165.46413076 -170.0625 162.5625 C-170.21608834 158.77196542 -170.37486019 154.98166252 -170.53515625 151.19140625 C-170.57272537 150.28232513 -170.61029449 149.37324402 -170.64900208 148.43661499 C-170.88318638 142.98586326 -171.24555773 137.57131259 -171.79711914 132.14233398 C-173.82789911 110.69817726 -170.1253985 90.2504951 -156.3671875 73.4765625 C-154.25811811 71.27004436 -152.81330296 70.07605597 -150 69 C-150 68.34 -150 67.68 -150 67 C-147.54296875 65.23046875 -147.54296875 65.23046875 -144.1875 63.1875 C-143.10855469 62.52105469 -142.02960938 61.85460937 -140.91796875 61.16796875 C-131.43325657 55.74670299 -121.28318502 52.24599368 -110.9375 48.875 C-109.62677766 48.44193695 -108.31622988 48.00834523 -107.00585938 47.57421875 C-100.83886201 45.53814429 -94.65685293 43.57211677 -88.42944336 41.72900391 C-74.13160576 37.43864685 -60.37210933 32.63467993 -47 26 C-45.63940189 25.38465746 -44.27598931 24.77550876 -42.91015625 24.171875 C-29.51467588 18.20383477 -16.8823918 10.77643265 -5.76171875 1.14453125 C-4 0 -4 0 0 0 Z " fill="#FAFDFC" transform="translate(478,323)"/>
<path d="M0 0 C0.82086356 2.83298032 1.18907575 4.47736608 0.171875 7.2890625 C-9.25489467 22.77589839 -21.96620706 31.84933702 -39.38671875 36.39111328 C-45.86466062 37.90045437 -52.43692049 38.96923468 -58.98461914 40.12744141 C-73.17957058 42.67690913 -86.10905611 46.47606144 -99 53 C-95.75144545 42.26564583 -88.75731732 33.89658693 -81 26 C-80.43667969 25.42378906 -79.87335938 24.84757812 -79.29296875 24.25390625 C-69.61013556 15.18361239 -57.03552788 12.40009888 -44.5 9.56591797 C-42.1732742 9.03922359 -39.85169999 8.49500823 -37.53125 7.94140625 C-33.35746056 6.94659972 -29.17925209 5.97156397 -25 5 C-21.87456839 4.27266956 -18.74966633 3.54311022 -15.625 2.8125 C-14.90481689 2.64548584 -14.18463379 2.47847168 -13.44262695 2.30639648 C-3.20874693 -0.08672289 -3.20874693 -0.08672289 0 0 Z " fill="#F9FCFB" transform="translate(436,442)"/>
<path d="M0 0 C4.57875 -0.0825 9.1575 -0.165 13.875 -0.25 C15.29796387 -0.28641602 16.72092773 -0.32283203 18.18701172 -0.36035156 C27.0065272 -0.43679641 34.39936472 0.29147508 41.4375 5.96484375 C41.953125 6.61582031 42.46875 7.26679688 43 7.9375 C43.53625 8.58589844 44.0725 9.23429687 44.625 9.90234375 C48.61145897 15.98395872 48.71164384 21.91959419 48 29 C46.55760623 34.68320421 43.85053213 39.23224576 39.10668945 42.74804688 C31.50138396 47.2676907 21.37409295 46.24236496 12.875 46.125 C8.62625 46.08375 4.3775 46.0425 0 46 C0 30.82 0 15.64 0 0 Z " fill="#FCFDFD" transform="translate(627,363)"/>
<path d="M0 0 C8.3840625 -0.12375 8.3840625 -0.12375 16.9375 -0.25 C18.68281006 -0.28641602 20.42812012 -0.32283203 22.22631836 -0.36035156 C31.93067009 -0.47869565 39.26075523 -0.0333998 46.9375 6.5 C52.10273326 12.7608888 51.73359862 19.11381486 51 27 C48.39523169 32.81063699 44.13939702 35.7148433 38.31982422 38.09716797 C34.41302556 39.15962873 30.77015808 39.25193745 26.7578125 39.1953125 C26.07581787 39.19329834 25.39382324 39.19128418 24.69116211 39.18920898 C22.16903862 39.17882757 19.64701181 39.15090558 17.125 39.125 C8.648125 39.063125 8.648125 39.063125 0 39 C0 26.13 0 13.26 0 0 Z " fill="#FAFDFC" transform="translate(960,427)"/>
<path d="M0 0 C5.094375 -0.103125 10.18875 -0.20625 15.4375 -0.3125 C17.02618896 -0.35802002 18.61487793 -0.40354004 20.25170898 -0.45043945 C28.18206599 -0.52799673 34.62046752 -0.26294714 41 5 C44.84451888 9.1328578 45.76861567 13.04914494 46.08984375 18.54296875 C45.88955467 24.02043958 43.68199982 27.63780337 39.8125 31.3125 C32.75274101 37.58211565 22.25023271 36.23970723 13.5 36.125 C9.045 36.08375 4.59 36.0425 0 36 C0 24.12 0 12.24 0 0 Z " fill="#FBFDFC" transform="translate(960,363)"/>
<path d="M0 0 C0.495 0.99 0.495 0.99 1 2 C1.99 2.33 2.98 2.66 4 3 C3.34 3.33 2.68 3.66 2 4 C1.01 3.505 1.01 3.505 0 3 C0 3.99 0 4.98 0 6 C1.65 6.33 3.3 6.66 5 7 C5.33 5.68 5.66 4.36 6 3 C9.3 3 12.6 3 16 3 C11.74220715 6.8037425 7.22893821 8.97199259 2.0625 11.25 C1.19222168 11.63696045 0.32194336 12.0239209 -0.57470703 12.42260742 C-13.85404737 18.22744106 -27.47931086 23.19877648 -41.4609375 27.01953125 C-59.69763296 32.07186079 -77.69062661 37.5608362 -93 49 C-94.0725 49.763125 -95.145 50.52625 -96.25 51.3125 C-102.93573189 57.84628344 -107.78601327 66.05466853 -112.65234375 73.98046875 C-113.09707031 74.64691406 -113.54179687 75.31335938 -114 76 C-114.33 76 -114.66 76 -115 76 C-113.94964901 62.08284937 -107.88036219 49.8811855 -97.3125 40.75 C-88.56964823 33.87359973 -79.41139575 28.81653693 -69 25 C-67.8759375 24.55011719 -66.751875 24.10023438 -65.59375 23.63671875 C-57.92077063 20.59450232 -50.24147381 18.19189304 -42.25 16.125 C-27.57798017 12.30300579 -13.66931231 6.52113982 0 0 Z " fill="#106242" transform="translate(445,383)"/>
<path d="M0 0 C0.99 0.66 1.98 1.32 3 2 C2.0409375 2.4021875 2.0409375 2.4021875 1.0625 2.8125 C-1.33131686 3.88667752 -1.33131686 3.88667752 -2 7 C-0.68 7.66 0.64 8.32 2 9 C2 9.66 2 10.32 2 11 C-12.74692194 16.1515914 -12.74692194 16.1515914 -20.25 17.484375 C-26.08444454 18.57833335 -31.8425816 20.04448306 -37.61132812 21.43798828 C-40.07380525 22.01736505 -42.54300061 22.55557005 -45.015625 23.08984375 C-64.63735018 27.45648485 -78.83700452 35.03289187 -90 52.375 C-92.17323455 55.82990969 -94.25318636 59.30621699 -96 63 C-97.98 63 -99.96 63 -102 63 C-102 54.20023786 -94.18601671 45.58152666 -89 39 C-88.33226562 38.14148438 -87.66453125 37.28296875 -86.9765625 36.3984375 C-72.7746562 19.34559091 -51.71158987 13.79179733 -30.890625 9.1171875 C-21.18131531 6.9357842 -11.74042177 4.04308153 -2.42578125 0.5390625 C-1.62527344 0.36117188 -0.82476562 0.18328125 0 0 Z " fill="#0E603F" transform="translate(434,430)"/>
<path d="M0 0 C13.2 0 26.4 0 40 0 C40 54.45 40 108.9 40 165 C39.67 165 39.34 165 39 165 C39 111.54 39 58.08 39 3 C20.19 3.495 20.19 3.495 1 4 C0.01 5.98 -0.98 7.96 -2 10 C-2.66 10 -3.32 10 -4 10 C-2.66666667 6.66666667 -1.33333333 3.33333333 0 0 Z " fill="#EEFFF9" transform="translate(861,330)"/>
<path d="M0 0 C0.99 0.66 1.98 1.32 3 2 C2.360625 2.268125 1.72125 2.53625 1.0625 2.8125 C-1.33131686 3.88667752 -1.33131686 3.88667752 -2 7 C-0.68 7.66 0.64 8.32 2 9 C2 9.66 2 10.32 2 11 C-0.36988929 11.87137151 -2.74414776 12.72206808 -5.125 13.5625 C-5.79015625 13.80935547 -6.4553125 14.05621094 -7.140625 14.31054688 C-11.49757327 15.82693574 -14.53014816 16.16271847 -19 15 C-18.01 14.01 -17.02 13.02 -16 12 C-16.33 11.34 -16.66 10.68 -17 10 C-19.64 10 -22.28 10 -25 10 C-25 10.66 -25 11.32 -25 12 C-26.65 12 -28.3 12 -30 12 C-29.67 11.01 -29.34 10.02 -29 9 C-27.21484375 8.12109375 -27.21484375 8.12109375 -24.9375 7.4375 C-24.11765625 7.18742187 -23.2978125 6.93734375 -22.453125 6.6796875 C-19.73343845 5.92614377 -16.9991935 5.25069507 -14.25 4.61328125 C-10.29634992 3.53563704 -6.47316059 2.0437425 -2.63671875 0.609375 C-1.76660156 0.40828125 -0.89648438 0.2071875 0 0 Z " fill="#116041" transform="translate(434,430)"/>
<path d="M0 0 C9.57 0 19.14 0 29 0 C29 0.33 29 0.66 29 1 C27.92621094 1.06058594 26.85242188 1.12117188 25.74609375 1.18359375 C24.30988685 1.26807651 22.87368942 1.35272054 21.4375 1.4375 C20.73302734 1.47681641 20.02855469 1.51613281 19.30273438 1.55664062 C14.82318887 1.82500049 10.44314624 2.34643461 6 3 C5.01 3 4.02 3 3 3 C2.67 16.2 2.34 29.4 2 43 C6.57875 43.020625 11.1575 43.04125 15.875 43.0625 C18.0403833 43.07615601 18.0403833 43.07615601 20.24951172 43.09008789 C21.38146973 43.09258545 22.51342773 43.09508301 23.6796875 43.09765625 C24.84226074 43.10289307 26.00483398 43.10812988 27.20263672 43.11352539 C29.95502192 43.19356283 29.95502192 43.19356283 32 42 C33.67654729 42.27942455 35.34608154 42.60828247 37 43 C30.1855165 47.542989 20.94441571 46.11581676 13.0625 46.0625 C8.751875 46.041875 4.44125 46.02125 0 46 C0 30.82 0 15.64 0 0 Z " fill="#CBE9DD" transform="translate(627,363)"/>
<path d="M0 0 C1.96426666 2.94639999 3.5345824 5.90087274 5.125 9.0625 C5.66382813 10.12597656 6.20265625 11.18945312 6.7578125 12.28515625 C8 15 8 15 8 17 C7.01 16.67 6.02 16.34 5 16 C5 14.68 5 13.36 5 12 C4.01 12 3.02 12 2 12 C2 42.36 2 72.72 2 104 C1.01 104 0.02 104 -1 104 C-0.67 69.68 -0.34 35.36 0 0 Z " fill="#F0FEF9" transform="translate(771,392)"/>
<path d="M0 0 C0.33 0 0.66 0 1 0 C1 33.66 1 67.32 1 102 C0.67 102 0.34 102 0 102 C-0.33 71.31 -0.66 40.62 -1 9 C-1.33 10.65 -1.66 12.3 -2 14 C-3.65 14.33 -5.3 14.66 -7 15 C-5.63408831 11.45756548 -4.09068516 8.07372071 -2.375 4.6875 C-1.70597656 3.36298828 -1.70597656 3.36298828 -1.0234375 2.01171875 C-0.68570313 1.34785156 -0.34796875 0.68398438 0 0 Z " fill="#F2FEF8" transform="translate(865,395)"/>
<path d="M0 0 C10.56 0 21.12 0 32 0 C32 0.33 32 0.66 32 1 C21.77 1 11.54 1 1 1 C1.33 11.56 1.66 22.12 2 33 C6.62 33 11.24 33 16 33 C16 33.66 16 34.32 16 35 C19.96 35 23.92 35 28 35 C28 35.33 28 35.66 28 36 C18.76 36 9.52 36 0 36 C0 24.12 0 12.24 0 0 Z " fill="#D5ECE3" transform="translate(960,363)"/>
<path d="M0 0 C13.86 0 27.72 0 42 0 C49 14 49 14 48 18 C45.69 13.38 43.38 8.76 41 4 C20.705 3.505 20.705 3.505 0 3 C0 2.01 0 1.02 0 0 Z " fill="#CBE5DA" transform="translate(736,330)"/>
<path d="M0 0 C0.66 0 1.32 0 2 0 C2.04898438 1.09699219 2.09796875 2.19398438 2.1484375 3.32421875 C2.22350591 4.77866925 2.29905197 6.23309516 2.375 7.6875 C2.4059375 8.40873047 2.436875 9.12996094 2.46875 9.87304688 C2.69701783 14.03893468 3.36103046 17.12951038 5 21 C5.3418499 23.22202433 5.62975308 25.45275003 5.875 27.6875 C6.59628975 33.24259444 7.91094085 37.77511168 10.1796875 42.8671875 C11.24662888 45.64123509 11.30921838 48.06242542 11 51 C7.86452931 49.43226466 7.72552039 46.95050791 6.625 43.6875 C1.94612189 29.37275665 -0.8225494 15.0800724 0 0 Z " fill="#125239" transform="translate(244,419)"/>
<path d="M0 0 C13.2 0 26.4 0 40 0 C40 1.98 40 3.96 40 6 C39.505 4.515 39.505 4.515 39 3 C20.19 3.495 20.19 3.495 1 4 C0.01 5.98 -0.98 7.96 -2 10 C-2.66 10 -3.32 10 -4 10 C-2.66666667 6.66666667 -1.33333333 3.33333333 0 0 Z " fill="#CFE9E0" transform="translate(861,330)"/>
<path d="M0 0 C0.99 0 1.98 0 3 0 C3.32486815 16.27950408 2.3075483 32.02524545 -1 48 C-1.66 48 -2.32 48 -3 48 C-2.86722656 47.04867187 -2.73445312 46.09734375 -2.59765625 45.1171875 C-0.65875729 30.1301216 -0.36717647 15.09005739 0 0 Z " fill="#D0EBE2" transform="translate(539,400)"/>
<path d="M0 0 C0.33 0 0.66 0 1 0 C1 13.53 1 27.06 1 41 C10.9 41 20.8 41 31 41 C26.60184991 43.93210006 22.37269906 43.54218982 17.1875 43.75 C16.20201172 43.80542969 15.21652344 43.86085938 14.20117188 43.91796875 C13.24146484 43.96050781 12.28175781 44.00304687 11.29296875 44.046875 C10.4218042 44.08651367 9.55063965 44.12615234 8.65307617 44.16699219 C6 44 6 44 0 42 C0 28.14 0 14.28 0 0 Z " fill="#075135" transform="translate(625,368)"/>
<path d="M0 0 C-7.67820371 5.11880247 -20.87360179 3.07570821 -29.83935547 2.87548828 C-30.70834473 2.86372559 -31.57733398 2.85196289 -32.47265625 2.83984375 C-33.24875244 2.82300537 -34.02484863 2.80616699 -34.82446289 2.78881836 C-37.29119812 3.0282669 -38.81062836 3.88052522 -41 5 C-43.33203812 5.0777346 -45.66839059 5.08967728 -48 5 C-48 4.01 -48 3.02 -48 2 C-32.16805094 -0.91641167 -16.0264326 -0.18954114 0 0 Z " fill="#115339" transform="translate(406,265)"/>
<path d="M0 0 C1.32 0.33 2.64 0.66 4 1 C4 1.66 4 2.32 4 3 C4.99 3.33 5.98 3.66 7 4 C8.54296875 5.63671875 8.54296875 5.63671875 10.1875 7.6875 C13.65202436 11.77858727 17.40244143 15.20975756 22 18 C22.66 18 23.32 18 24 18 C24 18.66 24 19.32 24 20 C24.66 20 25.32 20 26 20 C26.391875 20.66 26.78375 21.32 27.1875 22 C28.96483185 24.42601514 28.96483185 24.42601514 32.6875 24.25 C33.780625 24.1675 34.87375 24.085 36 24 C36 24.66 36 25.32 36 26 C36.66 26.33 37.32 26.66 38 27 C36.68 27.99 35.36 28.98 34 30 C21.57029018 21.42099279 10.33544893 12.0831197 0 1 C0 0.67 0 0.34 0 0 Z " fill="#165940" transform="translate(281,514)"/>
<path d="M0 0 C0.66 0 1.32 0 2 0 C1.14534279 5.73123069 -1.63938058 9.40292627 -5 14 C-5.4434375 14.62390625 -5.886875 15.2478125 -6.34375 15.890625 C-10.56032682 21.3329509 -16.11783209 24.55652448 -22 28 C-22.66 27.34 -23.32 26.68 -24 26 C-21.3144406 23.3144406 -18.62378672 22.93950026 -15 22 C-15 20.68 -15 19.36 -15 18 C-13.28515625 16.65625 -13.28515625 16.65625 -11.0625 15.5 C-8.8468832 14.41246062 -8.8468832 14.41246062 -7 13 C-6.34880419 10.94839342 -6.34880419 10.94839342 -6 9 C-5.34 8.71125 -4.68 8.4225 -4 8.125 C-3.34 7.75375 -2.68 7.3825 -2 7 C-1.25999616 3.97729478 -1.25999616 3.97729478 -1 1 C-0.67 0.67 -0.34 0.34 0 0 Z " fill="#1A5941" transform="translate(705,404)"/>
<path d="M0 0 C0.33 0 0.66 0 1 0 C1.25 6.625 1.25 6.625 -1 10 C-1.66 10 -2.32 10 -3 10 C-3 11.65 -3 13.3 -3 15 C-3.99 15.33 -4.98 15.66 -6 16 C-6.12375 16.9075 -6.2475 17.815 -6.375 18.75 C-6.92109677 21.58970323 -7.57263803 23.52590591 -9 26 C-9.66 26 -10.32 26 -11 26 C-11.2165625 26.8971875 -11.2165625 26.8971875 -11.4375 27.8125 C-11.8872439 29.56150404 -12.42892341 31.28677023 -13 33 C-14.485 33.495 -14.485 33.495 -16 34 C-14.53415094 29.16868114 -12.5428523 24.84801243 -10.25 20.375 C-9.53641789 18.96616632 -8.82287666 17.55731193 -8.109375 16.1484375 C-7.75552734 15.45331055 -7.40167969 14.75818359 -7.03710938 14.04199219 C-5.51002448 11.03527418 -4.00526601 8.01769996 -2.5 5 C-1.25 2.5 -1.25 2.5 0 0 Z " fill="#185840" transform="translate(844,369)"/>
<path d="M0 0 C2.25157186 -0.00220047 4.50266417 -0.02042368 6.75415039 -0.03930664 C8.18318518 -0.04223833 9.61222228 -0.04422463 11.04125977 -0.04516602 C12.3395874 -0.0492749 13.63791504 -0.05338379 14.97558594 -0.05761719 C18.06079102 0.18530273 18.06079102 0.18530273 20.06079102 2.18530273 C7.09385741 3.93085149 -5.95108474 3.43073931 -18.93920898 2.18530273 C-18.93920898 1.85530273 -18.93920898 1.52530273 -18.93920898 1.18530273 C-12.71066008 -0.3119087 -6.36454097 -0.00069917 0 0 Z " fill="#27644B" transform="translate(389.939208984375,561.814697265625)"/>
<path d="M0 0 C0.99 0.66 1.98 1.32 3 2 C3 2.66 3 3.32 3 4 C1.906875 4.226875 0.81375 4.45375 -0.3125 4.6875 C-4.56958949 6.20273524 -4.94845804 7.18999349 -7 11 C-9.1875 11.8125 -9.1875 11.8125 -11 12 C-10.67 10.68 -10.34 9.36 -10 8 C-10.66 8 -11.32 8 -12 8 C-11.62830496 5.36997598 -11.2921315 4.25479631 -9.2578125 2.48046875 C-8.20207031 1.84044922 -8.20207031 1.84044922 -7.125 1.1875 C-6.42632812 0.74792969 -5.72765625 0.30835938 -5.0078125 -0.14453125 C-3 -1 -3 -1 0 0 Z " fill="#0C613F" transform="translate(368,453)"/>
<path d="M0 0 C0.66 0.33 1.32 0.66 2 1 C1.57493694 6.419554 0.45663972 8.89524033 -3 13 C-3.66347631 15.48400985 -3.66347631 15.48400985 -4 18 C-5.64383562 22.82191781 -5.64383562 22.82191781 -8 24 C-8 24.66 -8 25.32 -8 26 C-9.32 26 -10.64 26 -12 26 C-10.66275093 22.57094969 -9.20576754 19.23769371 -7.6171875 15.91796875 C-7.17246094 14.98662109 -6.72773437 14.05527344 -6.26953125 13.09570312 C-5.80933594 12.13599609 -5.34914063 11.17628906 -4.875 10.1875 C-4.40707031 9.20845703 -3.93914063 8.22941406 -3.45703125 7.22070312 C-2.30609188 4.81312587 -1.15370472 2.40625301 0 0 Z " fill="#1D5F47" transform="translate(860,336)"/>
<path d="M0 0 C0.66 0 1.32 0 2 0 C4.02055843 4.39251833 5.40895235 8.15340923 6 13 C7.32 13.33 8.64 13.66 10 14 C10.48009262 16.06228466 10.95903544 18.12483701 11.4375 20.1875 C11.70433594 21.33605469 11.97117187 22.48460937 12.24609375 23.66796875 C12.87312201 26.43923875 13.45899177 29.21091874 14 32 C10.98749575 28.36616675 9.05654628 24.33860046 7 20.125 C6.65710938 19.43019531 6.31421875 18.73539062 5.9609375 18.01953125 C5.28702619 16.65370337 4.61612765 15.28638416 3.94848633 13.91748047 C3.08156245 12.16488842 2.17365201 10.43272426 1.26171875 8.703125 C-0.18817935 5.59684176 -0.24201813 3.38825385 0 0 Z " fill="#15583F" transform="translate(772,389)"/>
<path d="M0 0 C0.99 0.99 1.98 1.98 3 3 C2.34 3 1.68 3 1 3 C0.67 3.99 0.34 4.98 0 6 C-0.66 6 -1.32 6 -2 6 C-1.938125 6.721875 -1.87625 7.44375 -1.8125 8.1875 C-2.03890323 11.58354843 -3.1610921 13.17091092 -5 16 C-5.350625 16.886875 -5.70125 17.77375 -6.0625 18.6875 C-7 21 -7 21 -9 23 C-9.39764263 24.98821313 -9.73775349 26.98944339 -10 29 C-10.66 29 -11.32 29 -12 29 C-12 29.66 -12 30.32 -12 31 C-12.66 31 -13.32 31 -14 31 C-11.44916917 19.94639973 -5.94311796 9.60184995 0 0 Z " fill="#195940" transform="translate(266,333)"/>
<path d="M0 0 C1.32 0.33 2.64 0.66 4 1 C4 1.66 4 2.32 4 3 C4.66 3.33 5.32 3.66 6 4 C4.35 6.97 2.7 9.94 1 13 C-0.98 13 -2.96 13 -5 13 C-5 9.51038791 -4.09620626 7.88519705 -2.5 4.8125 C-2.0359375 3.91144531 -1.571875 3.01039063 -1.09375 2.08203125 C-0.7328125 1.39496094 -0.371875 0.70789063 0 0 Z " fill="#166040" transform="translate(337,480)"/>
<path d="M0 0 C2.31 0 4.62 0 7 0 C7 0.66 7 1.32 7 2 C7.61875 2.309375 8.2375 2.61875 8.875 2.9375 C10.25 3.625 11.625 4.3125 13 5 C13 5.66 13 6.32 13 7 C14.98 7 16.96 7 19 7 C19.98120464 10.05263664 19.98120464 11.94736336 19 15 C17.25 14.875 17.25 14.875 15 14 C13.63636792 12.02053408 12.30581356 10.0180755 11 8 C7.63554193 4.90115704 4.13780763 2.92456169 0 1 C0 0.67 0 0.34 0 0 Z " fill="#0D5A3E" transform="translate(658,363)"/>
<path d="M0 0 C1.89213369 2.38573379 3.02391783 4.07175348 4 7 C4.639375 7.4125 5.27875 7.825 5.9375 8.25 C8.88815574 10.75358669 9.25644201 13.28221006 10 17 C9.67 17.66 9.34 18.32 9 19 C4.48244546 13.94464135 0.65119902 8.70985379 -3 3 C-2.01 2.01 -1.02 1.02 0 0 Z " fill="#165A42" transform="translate(269,492)"/>
<path d="M0 0 C0.33 0.66 0.66 1.32 1 2 C2.32 1.67 3.64 1.34 5 1 C4.67 2.65 4.34 4.3 4 6 C2.8553125 6.1546875 2.8553125 6.1546875 1.6875 6.3125 C-1.22091043 7.05651197 -2.07329888 7.79805587 -4 10 C-4.99 10.495 -4.99 10.495 -6 11 C-5.67 11.99 -5.34 12.98 -5 14 C-7.31 13.34 -9.62 12.68 -12 12 C-10.78611348 8.35834045 -9.75705848 7.96273673 -6.5625 6 C-3.46366251 4.08996212 -2.06225028 3.09337542 0 0 Z " fill="#F2F4F3" transform="translate(1033,401)"/>
<path d="M0 0 C1.32441496 3.97324489 0.29663742 5.05734462 -1.52734375 8.76171875 C-2.07197266 9.87998047 -2.61660156 10.99824219 -3.17773438 12.15039062 C-3.75845703 13.31763672 -4.33917969 14.48488281 -4.9375 15.6875 C-5.51435547 16.86634766 -6.09121094 18.04519531 -6.68554688 19.25976562 C-8.11494221 22.17762221 -9.55338558 25.09065202 -11 28 C-11.99528744 25.01413769 -12.23314275 23.10857 -12 20 C-11.01 18.515 -11.01 18.515 -10 17 C-10.66 16.67 -11.32 16.34 -12 16 C-11.071875 15.855625 -10.14375 15.71125 -9.1875 15.5625 C-5.933547 14.37108538 -5.933547 14.37108538 -5.0390625 12.0390625 C-4.55004293 10.45632174 -4.08950201 8.86453123 -3.65625 7.265625 C-2.86451741 4.53226248 -1.59049004 2.34786624 0 0 Z " fill="#185940" transform="translate(864,393)"/>
<path d="M0 0 C0 0.66 0 1.32 0 2 C-18.315 1.505 -18.315 1.505 -37 1 C-37 0.67 -37 0.34 -37 0 C-32.83441194 -0.36768425 -28.66745719 -0.71669922 -24.5 -1.0625 C-23.32695313 -1.16626953 -22.15390625 -1.27003906 -20.9453125 -1.37695312 C-13.6243884 -1.97332054 -7.05520556 -2.35173519 0 0 Z " fill="#0D4D35" transform="translate(997,362)"/>
<path d="M0 0 C0 0.66 0 1.32 0 2 C-5.16319485 6.51925899 -9.09285586 8.39097042 -16 8 C-16.969375 8.495 -17.93875 8.99 -18.9375 9.5 C-22.93348703 11.45721814 -25.59308635 11.22794381 -30 11 C-27.26162137 9.57835058 -24.52800347 8.39716722 -21.62890625 7.34375 C-20.80712891 7.04339844 -19.98535156 6.74304688 -19.13867188 6.43359375 C-18.28853516 6.12550781 -17.43839844 5.81742188 -16.5625 5.5 C-14.87607053 4.88605233 -13.1898659 4.27148665 -11.50390625 3.65625 C-10.71773926 3.37007812 -9.93157227 3.08390625 -9.12158203 2.7890625 C-7.41085814 2.15280708 -5.716132 1.47363099 -4.02734375 0.78125 C-2 0 -2 0 0 0 Z " fill="#D8EEE7" transform="translate(458,550)"/>
<path d="M0 0 C6.03819185 9.80898104 2.8292692 26.97709861 2 38 C1.67 38 1.34 38 1 38 C0.14214576 25.31601228 -0.11941996 12.71159085 0 0 Z " fill="#D8F0E6" transform="translate(308,468)"/>
<path d="M0 0 C1.32 0.33 2.64 0.66 4 1 C3.34 1.66 2.68 2.32 2 3 C1.66868587 5.38480046 1.66868587 5.38480046 1.68115234 8.18408203 C1.66128265 9.26505157 1.64141296 10.34602112 1.62094116 11.45974731 C1.60938995 12.63060883 1.59783875 13.80147034 1.5859375 15.0078125 C1.56657135 16.20356903 1.5472052 17.39932556 1.5272522 18.63131714 C1.46732056 22.46247148 1.4210164 26.29365565 1.375 30.125 C1.33683276 32.71746125 1.29778179 35.30990966 1.2578125 37.90234375 C1.1616079 44.26811537 1.07660039 50.63396395 1 57 C0.67 57 0.34 57 0 57 C0 38.19 0 19.38 0 0 Z " fill="#F0FEF9" transform="translate(628,439)"/>
<path d="M0 0 C-2.63767321 2.63767321 -5.59387187 3.38202636 -9.0625 4.5 C-9.73482666 4.72067139 -10.40715332 4.94134277 -11.09985352 5.16870117 C-16.01867297 6.7547502 -20.92188987 8.02001384 -26 9 C-26.33 8.01 -26.66 7.02 -27 6 C-24.59454362 4.79727181 -23.05003047 4.89928528 -20.375 4.9375 C-19.14910156 4.95103516 -19.14910156 4.95103516 -17.8984375 4.96484375 C-16.95871094 4.98224609 -16.95871094 4.98224609 -16 5 C-16 4.34 -16 3.68 -16 3 C-14.27318563 2.49193553 -12.54342021 1.99389533 -10.8125 1.5 C-9.36810547 1.08234375 -9.36810547 1.08234375 -7.89453125 0.65625 C-5.14654124 0.03322392 -2.80401584 -0.12302812 0 0 Z " fill="#185940" transform="translate(406,359)"/>
<path d="M0 0 C0.625 1.8125 0.625 1.8125 1 4 C0.01 5.485 0.01 5.485 -1 7 C-3.06298828 7.34057617 -3.06298828 7.34057617 -5.5703125 7.29296875 C-6.46621094 7.28330078 -7.36210938 7.27363281 -8.28515625 7.26367188 C-9.69087891 7.2259668 -9.69087891 7.2259668 -11.125 7.1875 C-12.06988281 7.17396484 -13.01476562 7.16042969 -13.98828125 7.14648438 C-16.32608779 7.11106306 -18.66276237 7.06167271 -21 7 C-20.67 6.34 -20.34 5.68 -20 5 C-15.38 5 -10.76 5 -6 5 C-6 4.01 -6 3.02 -6 2 C-4.02 1.34 -2.04 0.68 0 0 Z " fill="#0F563A" transform="translate(831,460)"/>
<path d="M0 0 C0.33 0 0.66 0 1 0 C1.33 11.88 1.66 23.76 2 36 C1.34 36 0.68 36 0 36 C-1.84404236 24.01372464 -0.85515385 12.03323626 0 0 Z " fill="#28634B" transform="translate(307,464)"/>
<path d="M0 0 C12.21 0 24.42 0 37 0 C35 2 35 2 31.79125977 2.1953125 C30.42451137 2.18143935 29.05784333 2.15730065 27.69140625 2.125 C26.96888168 2.11742676 26.24635712 2.10985352 25.50193787 2.10205078 C22.40620544 2.0693021 19.3109973 2.01308099 16.21557617 1.95898438 C13.95754428 1.92285206 11.69959789 1.89863825 9.44140625 1.875 C8.7413295 1.85840332 8.04125275 1.84180664 7.31996155 1.82470703 C3.62678735 1.78740023 2.16512908 1.88991395 -1 4 C-0.67 2.68 -0.34 1.36 0 0 Z " fill="#0F5137" transform="translate(862,333)"/>
<path d="M0 0 C0.99 0 1.98 0 3 0 C2.49785005 4.39381209 1.07786311 6.83419795 -2 10 C-3.32860925 10.35169068 -4.66158328 10.68770276 -6 11 C-7.28436734 12.9837767 -7.28436734 12.9837767 -8 15 C-8.99 15 -9.98 15 -11 15 C-9.26083819 11.03471107 -6.78255339 8.69560062 -3.65625 5.78125 C-1.95804683 3.95488055 -0.99683672 2.27278771 0 0 Z " fill="#1D5F47" transform="translate(433,452)"/>
<path d="M0 0 C1.96426666 2.94639999 3.5345824 5.90087274 5.125 9.0625 C5.66382813 10.12597656 6.20265625 11.18945312 6.7578125 12.28515625 C8 15 8 15 8 17 C7.01 16.67 6.02 16.34 5 16 C5 14.68 5 13.36 5 12 C4.01 12 3.02 12 2 12 C1.67 15.96 1.34 19.92 1 24 C0.67 24 0.34 24 0 24 C0 16.08 0 8.16 0 0 Z " fill="#E4F9F3" transform="translate(771,392)"/>
<path d="M0 0 C0.33 -0.33 0.66 -0.66 1 -1 C3.67058851 -1.14115161 6.32432238 -1.04247107 9 -1 C5.08743109 1.23130588 0.86227028 2.32507678 -3.4375 3.5625 C-4.18837891 3.78357422 -4.93925781 4.00464844 -5.71289062 4.23242188 C-9.45435567 5.32162586 -13.15768481 6.32014701 -17 7 C-16.34 5.68 -15.68 4.36 -15 3 C-13.68 3.33 -12.36 3.66 -11 4 C-10.67 3.34 -10.34 2.68 -10 2 C-8.68 2 -7.36 2 -6 2 C-6 1.34 -6 0.68 -6 0 C-3 -1 -3 -1 0 0 Z " fill="#DCF2EB" transform="translate(362,483)"/>
<path d="M0 0 C-4.95780489 2.30160773 -9.56474563 3.73936688 -14.9375 4.6875 C-15.93426758 4.88182617 -15.93426758 4.88182617 -16.95117188 5.08007812 C-21.69439015 5.94959147 -26.1795506 6.11310552 -31 6 C-27.33175515 3.812255 -23.45986348 3.20712306 -19.3125 2.5 C-17.87866524 2.24614925 -16.44506885 1.99094826 -15.01171875 1.734375 C-14.32255371 1.61126953 -13.63338867 1.48816406 -12.92333984 1.36132812 C-10.47126273 0.9006688 -8.0499864 0.33547796 -5.625 -0.25 C-2 -1 -2 -1 0 0 Z " fill="#0F5338" transform="translate(439,557)"/>
<path d="M0 0 C6.34257749 0.46982055 6.34257749 0.46982055 8.9375 2.5625 C9.288125 3.036875 9.63875 3.51125 10 4 C9 5.5 9 5.5 7 7 C4.28153765 7.27345479 1.74322801 7.13491285 -1 7 C-1 6.01 -1 5.02 -1 4 C-0.67 4.33 -0.34 4.66 0 5 C0.33 4.34 0.66 3.68 1 3 C0.34 2.34 -0.32 1.68 -1 1 C-0.67 0.67 -0.34 0.34 0 0 Z " fill="#05633E" transform="translate(414,396)"/>
<path d="M0 0 C0.99 0.33 1.98 0.66 3 1 C-0.3 7.6 -3.6 14.2 -7 21 C-7.66 20.01 -8.32 19.02 -9 18 C-7.84858407 14.12705551 -5.83737224 10.59122757 -4 7 C-3.34 7 -2.68 7 -2 7 C-1.34 4.69 -0.68 2.38 0 0 Z " fill="#15553D" transform="translate(844,432)"/>
<path d="M0 0 C0.33 0 0.66 0 1 0 C1 1.65 1 3.3 1 5 C1.66 5 2.32 5 3 5 C2 7 2 7 0 8 C-0.6496875 9.4540625 -0.6496875 9.4540625 -1.3125 10.9375 C-3.25576239 14.46416137 -4.28949854 14.8282627 -8 16 C-8.33 16.66 -8.66 17.32 -9 18 C-9 14.44206755 -8.20999856 13.5367133 -6.1875 10.6875 C-3.78657359 7.21381924 -1.76741506 3.82939929 0 0 Z " fill="#DDF3E9" transform="translate(1044,466)"/>
<path d="M0 0 C1 2 1 2 -0.0625 5.5625 C-2 9 -2 9 -5.1875 9.9375 C-6.115625 9.958125 -7.04375 9.97875 -8 10 C-8 10.66 -8 11.32 -8 12 C-11.01324195 13.50662097 -13.68286377 13.17770373 -17 13 C-17.66 12.34 -18.32 11.68 -19 11 C-18.35933594 10.92523438 -17.71867188 10.85046875 -17.05859375 10.7734375 C-10.5036245 9.77700402 -6.44773997 7.9658006 -2 3 C-1.34 2.01 -0.68 1.02 0 0 Z " fill="#15573E" transform="translate(673,397)"/>
<path d="M0 0 C0.99 0.33 1.98 0.66 3 1 C2.69707031 1.52207031 2.39414062 2.04414063 2.08203125 2.58203125 C-1.32383211 8.56587118 -4.23191927 14.69819919 -7 21 C-8.13671875 19.34765625 -8.13671875 19.34765625 -9 17 C-8.20703125 14.30859375 -8.20703125 14.30859375 -6.8125 11.4375 C-6.36519531 10.48746094 -5.91789062 9.53742188 -5.45703125 8.55859375 C-4.13811289 6.24253068 -2.88273803 4.82970315 -1 3 C-0.67 2.01 -0.34 1.02 0 0 Z " fill="#14573E" transform="translate(316,400)"/>
<path d="M0 0 C0.33 0 0.66 0 1 0 C1 4.29 1 8.58 1 13 C0.34 11.68 -0.32 10.36 -1 9 C-1.33 10.65 -1.66 12.3 -2 14 C-3.65 14.33 -5.3 14.66 -7 15 C-5.63408831 11.45756548 -4.09068516 8.07372071 -2.375 4.6875 C-1.70597656 3.36298828 -1.70597656 3.36298828 -1.0234375 2.01171875 C-0.68570313 1.34785156 -0.34796875 0.68398438 0 0 Z " fill="#E6F7F1" transform="translate(865,395)"/>
<path d="M0 0 C0.33 0 0.66 0 1 0 C1.84942326 4.43738713 2.16329619 8.67106952 2.1875 13.1875 C2.20167969 14.39792969 2.21585938 15.60835938 2.23046875 16.85546875 C2 20 2 20 0 23 C-0.06058594 22.14277344 -0.12117187 21.28554688 -0.18359375 20.40234375 C-0.67760564 13.1082929 -0.67760564 13.1082929 -1.6875 5.875 C-2 3 -2 3 0 0 Z " fill="#236148" transform="translate(709,372)"/>
<path d="M0 0 C-0.99 0.495 -0.99 0.495 -2 1 C-2.66 2.32 -3.32 3.64 -4 5 C-6.97 4.67 -9.94 4.34 -13 4 C-10.60208312 -0.79583375 -4.69308584 -1.56436195 0 0 Z M-17 4 C-14.875 4.375 -14.875 4.375 -13 5 C-13.66 5.66 -14.32 6.32 -15 7 C-15 7.66 -15 8.32 -15 9 C-15.66 9 -16.32 9 -17 9 C-17 8.34 -17 7.68 -17 7 C-17.66 6.67 -18.32 6.34 -19 6 C-18.34 5.34 -17.68 4.68 -17 4 Z " fill="#01623B" transform="translate(394,446)"/>
<path d="M0 0 C0.28875 0.639375 0.5775 1.27875 0.875 1.9375 C1.82823451 4.15206079 1.82823451 4.15206079 4 5 C3.401875 5.53625 2.80375 6.0725 2.1875 6.625 C-0.21315594 9.23142645 -1.54018514 11.7884073 -3 15 C-3.99 15 -4.98 15 -6 15 C-4.36041242 9.76727367 -2.61047965 4.84803364 0 0 Z " fill="#0E5B3E" transform="translate(827,403)"/>
<path d="M0 0 C0.8971875 0.309375 0.8971875 0.309375 1.8125 0.625 C0.0883698 1.92338176 -1.64203232 3.21343747 -3.375 4.5 C-4.81939453 5.57894531 -4.81939453 5.57894531 -6.29296875 6.6796875 C-8.89878675 8.43096599 -11.23542144 9.59959794 -14.1875 10.625 C-14.1875 9.965 -14.1875 9.305 -14.1875 8.625 C-13.5275 8.625 -12.8675 8.625 -12.1875 8.625 C-12.5175 7.635 -12.8475 6.645 -13.1875 5.625 C-12.37345703 5.22667969 -12.37345703 5.22667969 -11.54296875 4.8203125 C-10.82753906 4.46710937 -10.11210937 4.11390625 -9.375 3.75 C-8.66730469 3.40195312 -7.95960938 3.05390625 -7.23046875 2.6953125 C-1.5715352 -0.26940603 -1.5715352 -0.26940603 0 0 Z " fill="#1E5C45" transform="translate(479.1875,534.375)"/>
<path d="M0 0 C0.66 0 1.32 0 2 0 C2.02716089 3.02089478 2.04691657 6.04154129 2.0625 9.0625 C2.07087891 9.91005859 2.07925781 10.75761719 2.08789062 11.63085938 C2.10683006 16.5361722 1.83326345 21.16444755 1 26 C0.34 26 -0.32 26 -1 26 C-0.79375 26.78375 -0.5875 27.5675 -0.375 28.375 C-0.189375 29.674375 -0.189375 29.674375 0 31 C-0.66 31.66 -1.32 32.32 -2 33 C-3.25187316 29.44335374 -2.68718573 27.35650969 -1.5625 23.8125 C0.59548405 15.89662213 0.2600109 8.12774822 0 0 Z " fill="#D4EDE5" transform="translate(710,375)"/>
<path d="M0 0 C0 3.77773318 -0.96765283 4.37439338 -3.5 7.0625 C-6.23444837 9.61867835 -6.23444837 9.61867835 -7 13 C-11.47058824 17 -11.47058824 17 -14 17 C-10.9644742 10.28595525 -5.23214891 5.07359894 0 0 Z " fill="#E0F6EF" transform="translate(359,464)"/>
<path d="M0 0 C-0.23828125 1.85546875 -0.23828125 1.85546875 -1 4 C-4.9201974 6.7482647 -8.80279173 8.08401462 -13.5625 7.75 C-14.366875 7.5025 -15.17125 7.255 -16 7 C-13.19350765 5.1290051 -10.50039527 3.76982048 -7.4375 2.375 C-6.46683594 1.92898438 -5.49617188 1.48296875 -4.49609375 1.0234375 C-2 0 -2 0 0 0 Z " fill="#165D41" transform="translate(418,470)"/>
<path d="M0 0 C4.46182436 1.31074365 7.99618757 3.07066011 11.875 5.625 C12.84179688 6.25664062 13.80859375 6.88828125 14.8046875 7.5390625 C15.52914063 8.02117187 16.25359375 8.50328125 17 9 C16.34 9.66 15.68 10.32 15 11 C14.4225 10.525625 13.845 10.05125 13.25 9.5625 C11.04957437 8.03442665 9.54785554 7.61499961 7 7 C6.67 6.34 6.34 5.68 6 5 C4.02111039 4.27306096 2.02045442 3.60183749 0 3 C0 2.01 0 1.02 0 0 Z " fill="#1C5D46" transform="translate(1011,336)"/>
<path d="M0 0 C4.2742558 1.5830577 6.26531794 4.50568404 9 8 C8.01 8.33 7.02 8.66 6 9 C5.67 8.67 5.34 8.34 5 8 C2.94603274 8.40929986 2.94603274 8.40929986 1 9 C-0.06546953 5.8035914 -0.07427838 3.34252724 0 0 Z " fill="#186047" transform="translate(489,302)"/>
<path d="M0 0 C5.91492272 0.45224761 11.35199888 1.1582605 17 3 C16.67 3.99 16.34 4.98 16 6 C10.24237834 4.91103333 4.60752181 3.70663707 -1 2 C-0.67 1.34 -0.34 0.68 0 0 Z " fill="#EAFAF4" transform="translate(419,265)"/>
<path d="M0 0 C3.91211733 1.15585285 6.8745041 2.35534962 10 5 C9.67 5.99 9.34 6.98 9 8 C7.4221875 7.5359375 7.4221875 7.5359375 5.8125 7.0625 C2.87247604 6.24314906 -0.00161623 5.54516069 -3 5 C-2.67 4.34 -2.34 3.68 -2 3 C-1.34 3 -0.68 3 0 3 C0 2.01 0 1.02 0 0 Z " fill="#145E44" transform="translate(459,281)"/>
<path d="M0 0 C0.99 0.33 1.98 0.66 3 1 C1.90353942 2.79639296 0.79754852 4.58697154 -0.3125 6.375 C-0.92738281 7.37273437 -1.54226563 8.37046875 -2.17578125 9.3984375 C-4 12 -4 12 -7 14 C-7.66 13.01 -8.32 12.02 -9 11 C-8.01 10.34 -7.02 9.68 -6 9 C-4.80767387 6.94996045 -4.80767387 6.94996045 -4 5 C-3.01 5 -2.02 5 -1 5 C-0.67 3.35 -0.34 1.7 0 0 Z " fill="#1C5942" transform="translate(512,496)"/>
<path d="M0 0 C1.32 1.32 2.64 2.64 4 4 C0.7 7.63 -2.6 11.26 -6 15 C-7 11 -7 11 -5.6875 8.75 C-5.130625 8.1725 -4.57375 7.595 -4 7 C-3.34 7 -2.68 7 -2 7 C-1.34 4.69 -0.68 2.38 0 0 Z " fill="#E3F8F0" transform="translate(282,305)"/>
<path d="M0 0 C0.825 0.33 1.65 0.66 2.5 1 C1.18 1.99 -0.14 2.98 -1.5 4 C-1.5 3.34 -1.5 2.68 -1.5 2 C-3.90593741 2.95539066 -3.90593741 2.95539066 -5.25 6.4375 C-6.91827798 9.52128657 -7.33552399 9.927251 -10.75 11.4375 C-12.11125 11.7159375 -12.11125 11.7159375 -13.5 12 C-10.99195413 6.33130448 -6.52672076 0 0 0 Z " fill="#14593F" transform="translate(296.5,301)"/>
<path d="M0 0 C0.99 0.66 1.98 1.32 3 2 C2.360625 2.2475 1.72125 2.495 1.0625 2.75 C-1.18741541 3.81562433 -1.18741541 3.81562433 -1.75 6.125 C-1.8325 6.74375 -1.915 7.3625 -2 8 C-4.4375 7.625 -4.4375 7.625 -7 7 C-7.33 6.34 -7.66 5.68 -8 5 C-10.02463255 4.34786708 -10.02463255 4.34786708 -12 4 C-10.06855012 3.27533198 -8.12956051 2.57073223 -6.1875 1.875 C-5.10855469 1.48054688 -4.02960938 1.08609375 -2.91796875 0.6796875 C-1.95503906 0.45539063 -0.99210937 0.23109375 0 0 Z " fill="#1E684B" transform="translate(434,430)"/>
<path d="M0 0 C1.45945288 0.08708669 2.91765868 0.19526907 4.375 0.3125 C5.59316406 0.39951172 5.59316406 0.39951172 6.8359375 0.48828125 C9 1 9 1 11 4 C8.375 5.625 8.375 5.625 5 7 C1.625 6.1875 1.625 6.1875 -1 5 C0.32 4.01 1.64 3.02 3 2 C2.01 1.34 1.02 0.68 0 0 Z " fill="#025E3A" transform="translate(399,401)"/>
<path d="M0 0 C6.16394199 1.2327884 10.29577097 5.09344365 14 10 C14.73046875 12.76171875 14.73046875 12.76171875 15 15 C14.38125 14.360625 13.7625 13.72125 13.125 13.0625 C9.5806068 9.49755959 5.7808117 6.21402959 2.01171875 2.890625 C1.34785156 2.26671875 0.68398438 1.6428125 0 1 C0 0.67 0 0.34 0 0 Z " fill="#D3EFE6" transform="translate(486,298)"/>
<path d="M0 0 C0 0.99 0 1.98 0 3 C0.99 3.66 1.98 4.32 3 5 C2.1875 7.4375 2.1875 7.4375 1 10 C0.01 10.33 -0.98 10.66 -2 11 C-4 9 -4 9 -5 7 C-3.35 4.69 -1.7 2.38 0 0 Z " fill="#0A583A" transform="translate(343,472)"/>
<path d="M0 0 C0.33 0.66 0.66 1.32 1 2 C-0.22103436 4.29460081 -1.47962592 6.44093623 -2.875 8.625 C-3.25269531 9.23601562 -3.63039063 9.84703125 -4.01953125 10.4765625 C-4.97899971 12.00624886 -5.98579322 13.50604395 -7 15 C-7.33 15 -7.66 15 -8 15 C-7.125 7.375 -7.125 7.375 -6 4 C-4.68 4.33 -3.36 4.66 -2 5 C-1.855625 4.360625 -1.71125 3.72125 -1.5625 3.0625 C-1 1 -1 1 0 0 Z " fill="#23563F" transform="translate(338,444)"/>
<path d="M0 0 C-1.485 2.475 -1.485 2.475 -3 5 C-3.66 4.67 -4.32 4.34 -5 4 C-6.53668865 3.77532169 -8.07968054 3.59203195 -9.625 3.4375 C-10.44226563 3.35371094 -11.25953125 3.26992188 -12.1015625 3.18359375 C-12.72804688 3.12300781 -13.35453125 3.06242187 -14 3 C-13.01 2.34 -12.02 1.68 -11 1 C-10.4225 0.608125 -9.845 0.21625 -9.25 -0.1875 C-5.98886538 -1.36513195 -3.34634569 -0.64352802 0 0 Z " fill="#196145" transform="translate(345,274)"/>
<path d="M0 0 C0.33 0.99 0.66 1.98 1 3 C0.67 3.66 0.34 4.32 0 5 C-0.66 5 -1.32 5 -2 5 C-2.33 6.32 -2.66 7.64 -3 9 C-3.66 9 -4.32 9 -5 9 C-5.33 9.99 -5.66 10.98 -6 12 C-9.0625 13.1875 -9.0625 13.1875 -12 14 C-12 13.34 -12 12.68 -12 12 C-10.390625 10.44921875 -10.390625 10.44921875 -8.25 8.6875 C-5.09829823 6.01637687 -2.44230671 3.35817172 0 0 Z " fill="#1D5C44" transform="translate(328,495)"/>
<path d="M0 0 C1.65 0 3.3 0 5 0 C8 6.625 8 6.625 8 10 C6.140625 9.78515625 6.140625 9.78515625 4 9 C2.734375 6.93359375 2.734375 6.93359375 1.75 4.4375 C1.41484375 3.61121094 1.0796875 2.78492188 0.734375 1.93359375 C0.49203125 1.29550781 0.2496875 0.65742188 0 0 Z " fill="#165C43" transform="translate(669,480)"/>
<path d="M0 0 C0.66 1.32 1.32 2.64 2 4 C1.360625 4.94875 0.72125 5.8975 0.0625 6.875 C-1.92620563 9.75287827 -1.92620563 9.75287827 -3 12 C-3.66 12 -4.32 12 -5 12 C-5.33 12.66 -5.66 13.32 -6 14 C-6.99 13.67 -7.98 13.34 -9 13 C-8.43410156 12.22914063 -7.86820313 11.45828125 -7.28515625 10.6640625 C-6.55167969 9.66117187 -5.81820312 8.65828125 -5.0625 7.625 C-4.33160156 6.62726563 -3.60070312 5.62953125 -2.84765625 4.6015625 C-1.0220431 2.17182891 -1.0220431 2.17182891 0 0 Z " fill="#D9EFE7" transform="translate(705,409)"/>
<path d="M0 0 C0.6875 2.25 0.6875 2.25 1 5 C-0.4375 7.3125 -0.4375 7.3125 -2 9 C-2.66 7.02 -3.32 5.04 -4 3 C-4.763125 3.20625 -5.52625 3.4125 -6.3125 3.625 C-9 4 -9 4 -12 2 C-7.8803623 0.70756464 -4.33168317 -0.26252625 0 0 Z " fill="#D2EDE3" transform="translate(436,442)"/>
<path d="M0 0 C0.33 0.99 0.66 1.98 1 3 C-1.64 5.31 -4.28 7.62 -7 10 C-7.33 8.68 -7.66 7.36 -8 6 C-8.33 5.34 -8.66 4.68 -9 4 C-2.25 0 -2.25 0 0 0 Z " fill="#1B6648" transform="translate(355,426)"/>
<path d="M0 0 C2.00841268 0.01421885 4.01537247 0.13420475 6.01953125 0.265625 C5.68953125 1.255625 5.35953125 2.245625 5.01953125 3.265625 C5.67953125 3.595625 6.33953125 3.925625 7.01953125 4.265625 C-0.80655571 5.65692935 -0.80655571 5.65692935 -4.98046875 4.265625 C-3.72152968 1.74774686 -2.88459378 0.38688832 0 0 Z " fill="#02623C" transform="translate(380.98046875,409.734375)"/>
<path d="M0 0 C0.66 0.66 1.32 1.32 2 2 C0.4050992 3.19991599 -1.20126147 4.38461318 -2.8125 5.5625 C-3.70582031 6.22378906 -4.59914063 6.88507813 -5.51953125 7.56640625 C-6.33808594 8.03949219 -7.15664063 8.51257813 -8 9 C-8.99 8.67 -9.98 8.34 -11 8 C-7.84442256 3.32974539 -5.1358421 1.87655769 0 0 Z " fill="#DFF3EE" transform="translate(314,283)"/>
<path d="M0 0 C0 0.66 0 1.32 0 2 C-0.78375 2.28875 -1.5675 2.5775 -2.375 2.875 C-5.09671632 3.84912254 -5.09671632 3.84912254 -7 6 C-7.66 6 -8.32 6 -9 6 C-9.99 6.66 -10.98 7.32 -12 8 C-13.32 7.34 -14.64 6.68 -16 6 C-13.50063756 3.50063756 -11.35191992 2.96276247 -8 1.875 C-6.9275 1.52179688 -5.855 1.16859375 -4.75 0.8046875 C-2 0 -2 0 0 0 Z " fill="#D9F1E7" transform="translate(438,398)"/>
<path d="M0 0 C-1.15173355 2.46800047 -2.04783565 4.04783565 -4 6 C-4.33 5.67 -4.66 5.34 -5 5 C-5.33 5.66 -5.66 6.32 -6 7 C-8.06640625 7.4140625 -8.06640625 7.4140625 -10.5625 7.625 C-11.38878906 7.69976562 -12.21507812 7.77453125 -13.06640625 7.8515625 C-14.02353516 7.92503906 -14.02353516 7.92503906 -15 8 C-12.68839505 5.68839505 -10.36966523 4.43821237 -7.5 2.875 C-6.03046875 2.06675781 -6.03046875 2.06675781 -4.53125 1.2421875 C-2 0 -2 0 0 0 Z " fill="#DFF4EF" transform="translate(458,336)"/>
<path d="M0 0 C0.66 0 1.32 0 2 0 C4.78925841 4.05710314 6.84113877 8.58364936 9 13 C8.34 13.66 7.68 14.32 7 15 C5.82823482 12.87767021 4.66245215 10.75242209 3.5 8.625 C3.16613281 8.02171875 2.83226562 7.4184375 2.48828125 6.796875 C0 2.2265625 0 2.2265625 0 0 Z " fill="#19533E" transform="translate(661,464)"/>
<path d="M0 0 C0.33 0 0.66 0 1 0 C1.25494982 4.24886605 1.47449362 8.49884111 1.6875 12.75 C1.76033203 13.9565625 1.83316406 15.163125 1.90820312 16.40625 C1.96298828 17.56640625 2.01777344 18.7265625 2.07421875 19.921875 C2.13182373 20.99018555 2.18942871 22.05849609 2.2487793 23.15917969 C2 26 2 26 -1 30 C-0.67 20.1 -0.34 10.2 0 0 Z " fill="#145E43" transform="translate(537,404)"/>
<path d="M0 0 C2.53326372 3.13642175 4.47344816 6.25994799 6 10 C5.6875 12.875 5.6875 12.875 5 15 C4.34 14.67 3.68 14.34 3 14 C2.59270772 11.67843403 2.25561323 9.3431213 2 7 C1.01 6.67 0.02 6.34 -1 6 C-0.67 4.02 -0.34 2.04 0 0 Z " fill="#195D44" transform="translate(810,401)"/>
<path d="M0 0 C2.31 0 4.62 0 7 0 C7 0.66 7 1.32 7 2 C7.8971875 2.4021875 7.8971875 2.4021875 8.8125 2.8125 C10.97224808 3.98493467 12.35790256 5.19369282 14 7 C13.34 7.66 12.68 8.32 12 9 C11.13375 8.236875 10.2675 7.47375 9.375 6.6875 C6.46399345 4.24779927 3.47056439 2.57001723 0 1 C0 0.67 0 0.34 0 0 Z " fill="#225B47" transform="translate(658,363)"/>
<path d="M0 0 C3.09592835 3.5087188 4.74194623 6.49197399 6 11 C5.01 11.66 4.02 12.32 3 13 C-0.36055646 8.51925805 -0.27429625 5.39449293 0 0 Z " fill="#DDEEE7" transform="translate(657,459)"/>
<path d="M0 0 C-4.80351913 3.24943941 -8.59639559 4.31157835 -14.375 3.5625 C-15.24125 3.376875 -16.1075 3.19125 -17 3 C-13.84341904 1.22722823 -10.93072481 0.4498469 -7.375 -0.1875 C-5.93253906 -0.45626953 -5.93253906 -0.45626953 -4.4609375 -0.73046875 C-2 -1 -2 -1 0 0 Z " fill="#CFE9DE" transform="translate(402,451)"/>
<path d="M0 0 C0.66 0 1.32 0 2 0 C3.72264494 3.29549466 5.29445932 6.33118845 6 10 C6.66 10 7.32 10 8 10 C8.33 11.65 8.66 13.3 9 15 C8.01 15 7.02 15 6 15 C4.99539469 12.87717331 3.99644398 10.75166979 3 8.625 C2.443125 7.44164062 1.88625 6.25828125 1.3125 5.0390625 C0 2 0 2 0 0 Z " fill="#14523A" transform="translate(797,442)"/>
<path d="M0 0 C2.64465038 3.1254959 3.84414715 6.08788267 5 10 C3.35 10 1.7 10 0 10 C-0.33 10.66 -0.66 11.32 -1 12 C-1.14285714 3.42857143 -1.14285714 3.42857143 0 0 Z " fill="#DCEBE3" transform="translate(794,438)"/>
<path d="M0 0 C0.66 0.33 1.32 0.66 2 1 C0.02 3.97 -1.96 6.94 -4 10 C-4.99 9.01 -5.98 8.02 -7 7 C-7 6.01 -7 5.02 -7 4 C-1.7265625 0.77734375 -1.7265625 0.77734375 0 0 Z " fill="#DDF0E9" transform="translate(688,428)"/>
<path d="M0 0 C0.99 0.33 1.98 0.66 3 1 C1.68 3.97 0.36 6.94 -1 10 C-2.32 10 -3.64 10 -5 10 C-3.66511872 6.40608886 -2.03977277 3.24509304 0 0 Z " fill="#175D42" transform="translate(849,421)"/>
<path d="M0 0 C-5.64732312 5.00191477 -11.6930361 4.78317615 -19 5 C-16.01243632 3.00829088 -13.44575614 1.97092021 -10.0625 0.8125 C-9.02222656 0.44769531 -7.98195313 0.08289063 -6.91015625 -0.29296875 C-4.04543948 -0.98896034 -2.71018643 -1.02529944 0 0 Z " fill="#D0E8DF" transform="translate(382,369)"/>
<path d="M0 0 C5.78706199 5.48247978 5.78706199 5.48247978 7 9 C6.67 9.66 6.34 10.32 6 11 C5.01 10.67 4.02 10.34 3 10 C2.32558869 8.3364521 1.6599679 6.66933058 1 5 C-1.02040748 2.72808584 -1.02040748 2.72808584 -3 1 C-2.01 0.67 -1.02 0.34 0 0 Z " fill="#1F644A" transform="translate(696,348)"/>
<path d="M0 0 C0.33 0.66 0.66 1.32 1 2 C1.99 2 2.98 2 4 2 C4.99 4.97 5.98 7.94 7 11 C6.01 11.495 6.01 11.495 5 12 C4.67 10.68 4.34 9.36 4 8 C2.68 8 1.36 8 0 8 C0 5.36 0 2.72 0 0 Z " fill="#1F634A" transform="translate(522,348)"/>
<path d="M0 0 C3.70503641 0.60334309 5.85968148 2.22474237 8.75 4.5625 C9.94882812 5.52349609 9.94882812 5.52349609 11.171875 6.50390625 C12.07679688 7.24447266 12.07679688 7.24447266 13 8 C12.01 8.66 11.02 9.32 10 10 C9.46375 9.4225 8.9275 8.845 8.375 8.25 C5.98654731 5.85330162 5.98654731 5.85330162 2.75 3.875 C1.8425 3.25625 0.935 2.6375 0 2 C0 1.34 0 0.68 0 0 Z " fill="#1C5D46" transform="translate(473,290)"/>
<path d="M0 0 C6.24723226 -0.82200425 10.71317837 2.07448606 16 5 C16 5.66 16 6.32 16 7 C10.53262809 5.25192871 5.24175152 3.34205919 0 1 C0 0.67 0 0.34 0 0 Z " fill="#255F49" transform="translate(325,549)"/>
<path d="M0 0 C0.66 0 1.32 0 2 0 C3.25664978 2.90600261 4 4.79604584 4 8 C4.99 8.33 5.98 8.66 7 9 C7.6875 11.0625 7.6875 11.0625 8 13 C7.01 13 6.02 13 5 13 C3.02 9.04 1.04 5.08 -1 1 C-0.67 0.67 -0.34 0.34 0 0 Z " fill="#E2F2EC" transform="translate(693,451)"/>
<path d="M0 0 C4.10936158 4.72576582 6.64731057 10.92670053 8 17 C5.21007634 14.51259818 3.55405687 11.75781143 1.75 8.5 C1.20859375 7.5409375 0.6671875 6.581875 0.109375 5.59375 C-1 3 -1 3 0 0 Z " fill="#135139" transform="translate(789,424)"/>
<path d="M0 0 C0 1.32 0 2.64 0 4 C-2.64 3.67 -5.28 3.34 -8 3 C-8 3.66 -8 4.32 -8 5 C-9.32 4.67 -10.64 4.34 -12 4 C-7.81413519 0.81076967 -5.29441695 -0.50423019 0 0 Z " fill="#0B5B3B" transform="translate(447,426)"/>
<path d="M0 0 C0.33 0.66 0.66 1.32 1 2 C-2.09677419 8.42293907 -2.09677419 8.42293907 -5.25 10.4375 C-6.11625 10.7159375 -6.11625 10.7159375 -7 11 C-7.33 9.68 -7.66 8.36 -8 7 C-5.36 4.69 -2.72 2.38 0 0 Z " fill="#166045" transform="translate(463,370)"/>
<path d="M0 0 C-3.09044125 2.06029417 -5.42945227 2.8223577 -9 3.75 C-10.051875 4.03359375 -11.10375 4.3171875 -12.1875 4.609375 C-15 5 -15 5 -18 3 C-16.12743583 2.49095343 -14.25180659 1.99317545 -12.375 1.5 C-11.33085937 1.2215625 -10.28671875 0.943125 -9.2109375 0.65625 C-6.04312582 0.00881404 -3.22258533 -0.1161292 0 0 Z " fill="#1A5B43" transform="translate(376,369)"/>
<path d="M0 0 C2.31 0 4.62 0 7 0 C7.33 0.99 7.66 1.98 8 3 C6.56666979 3.39063507 5.12807321 3.76198474 3.6875 4.125 C2.48673828 4.43824219 2.48673828 4.43824219 1.26171875 4.7578125 C-1 5 -1 5 -4 3 C-2.68 2.67 -1.36 2.34 0 2 C0 1.34 0 0.68 0 0 Z " fill="#186046" transform="translate(408,354)"/>
<path d="M0 0 C-0.33 0.33 -0.66 0.66 -1 1 C1.97 1.495 1.97 1.495 5 2 C5 3.32 5 4.64 5 6 C0.52761347 4.58192622 -3.71146306 2.88695626 -8 1 C-4.93251126 -0.86240388 -3.40254489 -1.2151946 0 0 Z " fill="#D5E9E1" transform="translate(453,274)"/>
<path d="M0 0 C1.32 0.33 2.64 0.66 4 1 C4 1.66 4 2.32 4 3 C4.99 3.33 5.98 3.66 7 4 C8.7890625 5.77734375 8.7890625 5.77734375 10.625 7.9375 C11.23601562 8.64777344 11.84703125 9.35804688 12.4765625 10.08984375 C14 12 14 12 15 14 C10.94772191 12.38873705 8.23778153 9.49978002 5.25 6.4375 C4.74339844 5.93025391 4.23679687 5.42300781 3.71484375 4.90039062 C0 1.14048812 0 1.14048812 0 0 Z " fill="#14503A" transform="translate(281,514)"/>
<path d="M0 0 C0.66 0 1.32 0 2 0 C2.66 1.98 3.32 3.96 4 6 C4.66 6 5.32 6 6 6 C6.33 7.98 6.66 9.96 7 12 C7.66 12 8.32 12 9 12 C8.67 13.32 8.34 14.64 8 16 C6.66141476 13.71125827 5.32898986 11.41930344 4 9.125 C3.6184375 8.47402344 3.236875 7.82304687 2.84375 7.15234375 C0 2.2265625 0 2.2265625 0 0 Z " fill="#17533C" transform="translate(652,448)"/>
<path d="M0 0 C0.53625 0.185625 1.0725 0.37125 1.625 0.5625 C4.61990614 1.11419324 7.03745829 0.60597444 10 0 C9.67 0.99 9.34 1.98 9 3 C7.2578125 3.765625 7.2578125 3.765625 5.125 4.25 C4.07699219 4.50523437 4.07699219 4.50523437 3.0078125 4.765625 C1 5 1 5 -2 4 C-1.34 2.68 -0.68 1.36 0 0 Z " fill="#146343" transform="translate(375,413)"/>
<path d="M0 0 C0.33 0.66 0.66 1.32 1 2 C1.99 2.33 2.98 2.66 4 3 C3.01 3.495 3.01 3.495 2 4 C1.34 3.67 0.68 3.34 0 3 C0 3.66 0 4.32 0 5 C-3.63 5.33 -7.26 5.66 -11 6 C-8.84733158 3.84733158 -7.15226256 3.06525538 -4.375 1.875 C-3.55773437 1.52179688 -2.74046875 1.16859375 -1.8984375 0.8046875 C-1.27195312 0.53914063 -0.64546875 0.27359375 0 0 Z " fill="#1C6449" transform="translate(445,383)"/>
<path d="M0 0 C2.764177 2.38724377 3.73744027 4.60687072 5 8 C5.556875 9.010625 6.11375 10.02125 6.6875 11.0625 C8.11131266 14.24912833 8.00776049 14.85497566 7 18 C5.82333996 15.75474054 4.6585926 13.50455858 3.5 11.25 C3.16613281 10.61578125 2.83226562 9.9815625 2.48828125 9.328125 C0.72824467 5.87989007 0 3.95159931 0 0 Z " fill="#DCF4EC" transform="translate(777,330)"/>
<path d="M0 0 C0.66 1.32 1.32 2.64 2 4 C-0.92145598 8.11167879 -2.05633898 9.02253559 -7 11 C-4.69 7.37 -2.38 3.74 0 0 Z " fill="#DDF1EC" transform="translate(516,495)"/>
<path d="M0 0 C0.33 0 0.66 0 1 0 C0.22095672 10.55808656 0.22095672 10.55808656 -2 15 C-2.33 15 -2.66 15 -3 15 C-3.56229448 4.27475338 -3.56229448 4.27475338 0 0 Z " fill="#28644A" transform="translate(537,436)"/>
<path d="M0 0 C0.66 0.33 1.32 0.66 2 1 C0.68 2.32 -0.64 3.64 -2 5 C-1.34 5.66 -0.68 6.32 0 7 C-1.65 7.33 -3.3 7.66 -5 8 C-5.66 6.68 -6.32 5.36 -7 4 C-1.7265625 0.77734375 -1.7265625 0.77734375 0 0 Z " fill="#0C5C3A" transform="translate(363,414)"/>
<path d="M0 0 C1.11375 0.3403125 1.11375 0.3403125 2.25 0.6875 C1.26 1.1825 1.26 1.1825 0.25 1.6875 C0.25 2.3475 0.25 3.0075 0.25 3.6875 C-1.71147874 5.07688077 -3.71166576 6.4135411 -5.75 7.6875 C-6.08 6.0375 -6.41 4.3875 -6.75 2.6875 C-4.29511132 0.41445492 -3.41240272 -0.38777304 0 0 Z " fill="#0B583B" transform="translate(327.75,388.3125)"/>
<path d="M0 0 C0.66 0 1.32 0 2 0 C0.5140084 4.59306496 -1.85014682 7.43569245 -5 11 C-5.66 10.67 -6.32 10.34 -7 10 C-5.32598022 6.04322598 -2.86850715 3.15535787 0 0 Z " fill="#E2F5EF" transform="translate(458,406)"/>
<path d="M0 0 C0.33 0.66 0.66 1.32 1 2 C-1.69277589 5.32637022 -5.03724749 6.58473125 -9 8 C-9.99 7.67 -10.98 7.34 -12 7 C-8.18765077 3.6497537 -4.66714289 1.83025211 0 0 Z " fill="#165640" transform="translate(431,346)"/>
<path d="M0 0 C2.86453858 3.41016497 4.34703566 6.90694544 6 11 C5.34 11.66 4.68 12.32 4 13 C3.67 11.68 3.34 10.36 3 9 C2.34 9 1.68 9 1 9 C0.45627049 5.94152152 0 3.11227195 0 0 Z " fill="#1F5D46" transform="translate(780,340)"/>
<path d="M0 0 C0.33 0 0.66 0 1 0 C1 2.64 1 5.28 1 8 C1.66 8 2.32 8 3 8 C3.33 10.97 3.66 13.94 4 17 C-0.1495026 12.71664247 -0.72520828 9.77062614 -1 4 C-0.5625 1.5 -0.5625 1.5 0 0 Z " fill="#0D573B" transform="translate(306,492)"/>
<path d="M0 0 C1.22963633 3.68890899 1.55670401 7.13699206 2 11 C1.01 11.33 0.02 11.66 -1 12 C-1.12375 11.030625 -1.2475 10.06125 -1.375 9.0625 C-1.58125 8.051875 -1.7875 7.04125 -2 6 C-2.66 5.67 -3.32 5.34 -4 5 C-2.68 3.35 -1.36 1.7 0 0 Z " fill="#1C6748" transform="translate(343,428)"/>
<path d="M0 0 C0.33 0 0.66 0 1 0 C1.08131463 1.43655854 1.13933559 2.8744483 1.1875 4.3125 C1.22230469 5.11300781 1.25710938 5.91351563 1.29296875 6.73828125 C1 9 1 9 -0.38671875 10.79296875 C-2 12 -2 12 -4 12 C-4.33 12.99 -4.66 13.98 -5 15 C-5.33 14.34 -5.66 13.68 -6 13 C-5.0390625 10.9765625 -5.0390625 10.9765625 -3.625 8.625 C-1.90220955 5.74726623 -0.64841937 3.30241495 0 0 Z " fill="#216046" transform="translate(463,398)"/>
<path d="M0 0 C-1.875 3.875 -1.875 3.875 -3 5 C-5 5 -5 5 -6.5 3.625 C-6.995 3.08875 -7.49 2.5525 -8 2 C-8.66 1.34 -9.32 0.68 -10 0 C-6.30581799 -1.231394 -3.7943739 -0.64432764 0 0 Z " fill="#1A6A4A" transform="translate(416,398)"/>
<path d="M0 0 C0.99 0.33 1.98 0.66 3 1 C2.67 2.65 2.34 4.3 2 6 C2.66 6 3.32 6 4 6 C4.33 5.34 4.66 4.68 5 4 C4.67 6.31 4.34 8.62 4 11 C2 9.4375 2 9.4375 0 7 C-0.25 3.25 -0.25 3.25 0 0 Z " fill="#045736" transform="translate(704,392)"/>
<path d="M0 0 C0.33 0.66 0.66 1.32 1 2 C5.455 1.505 5.455 1.505 10 1 C7.14415227 2.90389849 5.0688238 3.69462177 1.8125 4.625 C0.91144531 4.88539063 0.01039063 5.14578125 -0.91796875 5.4140625 C-1.94857422 5.70410156 -1.94857422 5.70410156 -3 6 C-1.125 1.125 -1.125 1.125 0 0 Z " fill="#14573E" transform="translate(350,373)"/>
<path d="M0 0 C2.39967601 0.88742735 4.09694321 2.15507249 6.0703125 3.765625 C4.4859808 3.67794252 2.90277683 3.56975171 1.3203125 3.453125 C-0.00226562 3.36611328 -0.00226562 3.36611328 -1.3515625 3.27734375 C-4.25272524 2.7015069 -5.72194357 1.68966352 -7.9296875 -0.234375 C-5.07630279 -1.66106735 -2.9871908 -0.70420467 0 0 Z " fill="#1D5F44" transform="translate(679.9296875,337.234375)"/>
<path d="M0 0 C1.09658936 3.28976808 0.79953138 4.71303767 0 8 C-0.99 8 -1.98 8 -3 8 C-3 8.66 -3 9.32 -3 10 C-4.98 10.99 -4.98 10.99 -7 12 C-5.44298069 7.32894208 -2.91552627 3.91294315 0 0 Z " fill="#19553F" transform="translate(276,319)"/>
<path d="M0 0 C0.5775 0.37125 1.155 0.7425 1.75 1.125 C0.7909375 1.2796875 0.7909375 1.2796875 -0.1875 1.4375 C-0.868125 1.664375 -1.54875 1.89125 -2.25 2.125 C-2.58 3.115 -2.91 4.105 -3.25 5.125 C-6.22 4.63 -6.22 4.63 -9.25 4.125 C-4.06343284 -1.58022388 -4.06343284 -1.58022388 0 0 Z " fill="#195F43" transform="translate(347.25,490.875)"/>
<path d="M0 0 C1.32 0 2.64 0 4 0 C4 1.65 4 3.3 4 5 C3.34 5 2.68 5 2 5 C1.67 5.99 1.34 6.98 1 8 C0.01 7.67 -0.98 7.34 -2 7 C-1.125 2.25 -1.125 2.25 0 0 Z " fill="#106945" transform="translate(334,485)"/>
<path d="M0 0 C0.66 0.66 1.32 1.32 2 2 C-1.63 2.66 -5.26 3.32 -9 4 C-9.66 3.01 -10.32 2.02 -11 1 C-7.26779887 0.12183503 -3.83453269 -0.25563551 0 0 Z " fill="#27694E" transform="translate(382,481)"/>
<path d="M0 0 C0.66 0.33 1.32 0.66 2 1 C1.67 1.66 1.34 2.32 1 3 C0.34 3 -0.32 3 -1 3 C-1 3.66 -1 4.32 -1 5 C-3.3125 6.6875 -3.3125 6.6875 -6 8 C-6.99 7.67 -7.98 7.34 -9 7 C-6.25604436 4.05278838 -3.61662784 1.80831392 0 0 Z " fill="#E2F5EE" transform="translate(364,423)"/>
<path d="M0 0 C0.66 0.33 1.32 0.66 2 1 C1.67 1.66 1.34 2.32 1 3 C0.34 3 -0.32 3 -1 3 C-0.34 4.65 0.32 6.3 1 8 C-1.31 7.34 -3.62 6.68 -6 6 C-5 3 -5 3 -2.5625 1.25 C-1.716875 0.8375 -0.87125 0.425 0 0 Z " fill="#CEEBDF" transform="translate(1027,407)"/>
<path d="M0 0 C2.00720923 0.28674418 4.0085944 0.61866701 6 1 C2.79593538 3.13604308 2.00399253 3.24208908 -1.66796875 3.1953125 C-2.56064453 3.18886719 -3.45332031 3.18242187 -4.37304688 3.17578125 C-5.76620117 3.15064453 -5.76620117 3.15064453 -7.1875 3.125 C-8.12787109 3.11597656 -9.06824219 3.10695313 -10.03710938 3.09765625 C-12.35832968 3.07409056 -14.67903644 3.04119116 -17 3 C-17 2.67 -17 2.34 -17 2 C-15.85660156 1.93941406 -14.71320312 1.87882812 -13.53515625 1.81640625 C-12.04425695 1.73201572 -10.55337225 1.64736698 -9.0625 1.5625 C-8.30775391 1.52318359 -7.55300781 1.48386719 -6.77539062 1.44335938 C-3.08055813 1.55961976 -3.08055813 1.55961976 0 0 Z " fill="#DDF1EB" transform="translate(658,405)"/>
<path d="M0 0 C2.56616632 3.84924948 2.55097676 6.4349304 3 11 C2.01 11.33 1.02 11.66 0 12 C-0.19477739 10.37585622 -0.38059458 8.75063577 -0.5625 7.125 C-0.66691406 6.22007812 -0.77132812 5.31515625 -0.87890625 4.3828125 C-1 2 -1 2 0 0 Z " fill="#0D573B" transform="translate(533,373)"/>
<path d="M0 0 C1.32 0.33 2.64 0.66 4 1 C4 1.66 4 2.32 4 3 C3.34 3 2.68 3 2 3 C2.33 5.64 2.66 8.28 3 11 C2.01 11 1.02 11 0 11 C0 7.37 0 3.74 0 0 Z " fill="#DAEBDF" transform="translate(1041,373)"/>
<path d="M0 0 C0.99 0.66 1.98 1.32 3 2 C1.68 4.97 0.36 7.94 -1 11 C-1.66 9.68 -2.32 8.36 -3 7 C-1.625 3.25 -1.625 3.25 0 0 Z " fill="#DFF3EE" transform="translate(845,360)"/>
<path d="M0 0 C3.26008643 3.16952847 6.22237877 6.39937989 9 10 C8.01 10 7.02 10 6 10 C6 9.34 6 8.68 6 8 C4.68 7.34 3.36 6.68 2 6 C2.33 5.34 2.66 4.68 3 4 C2.01 4.33 1.02 4.66 0 5 C0 3.35 0 1.7 0 0 Z " fill="#D1EEE6" transform="translate(276,509)"/>
<path d="M0 0 C1.5625 1.125 1.5625 1.125 3 3 C2.75921963 6.85248595 2.15973378 8.76039934 0 12 C-0.66 12 -1.32 12 -2 12 C-2.33 12.66 -2.66 13.32 -3 14 C-2.46110852 11.03609684 -1.77296899 8.21206883 -0.9375 5.3125 C0.09077416 2.25303296 0.09077416 2.25303296 0 0 Z " fill="#12593F" transform="translate(437,440)"/>
<path d="M0 0 C1.9375 0.625 1.9375 0.625 4 2 C4.75 5.125 4.75 5.125 5 8 C1.5625 6.6875 1.5625 6.6875 -2 5 C-2.33 4.01 -2.66 3.02 -3 2 C-2.01 1.34 -1.02 0.68 0 0 Z " fill="#1A6046" transform="translate(1000,424)"/>
<path d="M0 0 C0.66 0 1.32 0 2 0 C1.38722388 2.96175123 0.74627478 4.38058783 -1 7 C-2.65 6.67 -4.3 6.34 -6 6 C-4 4 -2 2 0 0 Z " fill="#1E6148" transform="translate(1002,391)"/>
<path d="M0 0 C-0.33 0.99 -0.66 1.98 -1 3 C-3.31 3.33 -5.62 3.66 -8 4 C-8 4.66 -8 5.32 -8 6 C-9.65 6 -11.3 6 -13 6 C-11.74693917 3.49387834 -10.66521628 3.11615658 -8.1875 1.875 C-7.15689453 1.34519531 -7.15689453 1.34519531 -6.10546875 0.8046875 C-4 0 -4 0 0 0 Z " fill="#D9F3E9" transform="translate(465,386)"/>
<path d="M0 0 C0.66 0 1.32 0 2 0 C1.54803755 1.60597325 1.08817673 3.20972508 0.625 4.8125 C0.36976563 5.70582031 0.11453125 6.59914063 -0.1484375 7.51953125 C-1 10 -1 10 -3 13 C-3.33 12.01 -3.66 11.02 -4 10 C-3.67 9.34 -3.34 8.68 -3 8 C-2.855625 7.195625 -2.71125 6.39125 -2.5625 5.5625 C-2 3 -2 3 0 0 Z " fill="#E0F4EB" transform="translate(253,355)"/>
<path d="M0 0 C-0.66 1.98 -1.32 3.96 -2 6 C-3.65 6.33 -5.3 6.66 -7 7 C-7.33 6.01 -7.66 5.02 -8 4 C-2.25 0 -2.25 0 0 0 Z " fill="#1A6047" transform="translate(323,281)"/>
<path d="M0 0 C0.99 1.32 1.98 2.64 3 4 C0.00468461 4.99843846 -1.17255732 5.00732761 -4.1875 4.5625 C-5.445625 4.376875 -6.70375 4.19125 -8 4 C-8 3.34 -8 2.68 -8 2 C-6.865625 1.855625 -5.73125 1.71125 -4.5625 1.5625 C-1.19222799 1.38828522 -1.19222799 1.38828522 0 0 Z " fill="#146044" transform="translate(714,491)"/>
<path d="M0 0 C3.04049801 3.64859761 4.96518762 7.7444533 7 12 C3.67858355 10.4353658 1.8213359 9.27840462 0 6 C-0.1875 2.75 -0.1875 2.75 0 0 Z " fill="#1B5A42" transform="translate(699,465)"/>
<path d="M0 0 C3.63 0 7.26 0 11 0 C7.85426323 2.09715785 5.98543749 2.52004559 2.3125 3.125 C0.82169922 3.37636719 0.82169922 3.37636719 -0.69921875 3.6328125 C-1.45847656 3.75398438 -2.21773438 3.87515625 -3 4 C-3 3.34 -3 2.68 -3 2 C-2.01 2 -1.02 2 0 2 C0 1.34 0 0.68 0 0 Z " fill="#205D44" transform="translate(400,447)"/>
<path d="M0 0 C-2.42130331 2.42130331 -3.80111377 2.52840504 -7.125 3.125 C-8.49011719 3.37636719 -8.49011719 3.37636719 -9.8828125 3.6328125 C-10.58148438 3.75398438 -11.28015625 3.87515625 -12 4 C-12 3.01 -12 2.02 -12 1 C-8.0186217 -0.3271261 -4.14954773 -0.06915913 0 0 Z " fill="#27644B" transform="translate(400,410)"/>
<path d="M0 0 C1.32 0.33 2.64 0.66 4 1 C2.57140593 2.03325986 1.13177617 3.05127634 -0.3125 4.0625 C-1.51326172 4.91521484 -1.51326172 4.91521484 -2.73828125 5.78515625 C-3.48464844 6.18605469 -4.23101562 6.58695312 -5 7 C-5.99 6.67 -6.98 6.34 -8 6 C-6.75 4.5 -6.75 4.5 -5 3 C-3.68 3 -2.36 3 -1 3 C-0.67 2.01 -0.34 1.02 0 0 Z " fill="#DBF4EC" transform="translate(452,376)"/>
<path d="M0 0 C0.66 0 1.32 0 2 0 C3.625 2.75 3.625 2.75 5 6 C4.1875 8.375 4.1875 8.375 3 10 C0.59185923 6.48812804 -0.36629408 4.27343092 0 0 Z " fill="#1A5C43" transform="translate(795,372)"/>
<path d="M0 0 C0.33 0.66 0.66 1.32 1 2 C-3.455 2.495 -3.455 2.495 -8 3 C-8 2.01 -8 1.02 -8 0 C-4.97878489 -0.97110486 -2.99536737 -1.13617383 0 0 Z " fill="#1C6142" transform="translate(1008,493)"/>
<path d="M0 0 C0.33 0 0.66 0 1 0 C1.35050464 5.841744 1.16727335 9.8531808 -2 15 C-3.31534494 11.34142468 -2.65468309 8.91973519 -1.5625 5.25 C-1.27503906 4.26515625 -0.98757813 3.2803125 -0.69140625 2.265625 C-0.46324219 1.51796875 -0.23507812 0.7703125 0 0 Z " fill="#C5E0D6" transform="translate(535,449)"/>
<path d="M0 0 C0.6875 2.3125 0.6875 2.3125 1 5 C-0.4375 6.8125 -0.4375 6.8125 -2 8 C-4.1385485 5.8614515 -4.42655063 4.86724686 -5 2 C-2 0 -2 0 0 0 Z " fill="#126244" transform="translate(455,378)"/>
<path d="M0 0 C0.66 0 1.32 0 2 0 C2 1.65 2 3.3 2 5 C2.99 5.33 3.98 5.66 5 6 C5 7.65 5 9.3 5 11 C4.01 10.67 3.02 10.34 2 10 C1.05078125 7.93359375 1.05078125 7.93359375 0.3125 5.4375 C0.06113281 4.61121094 -0.19023438 3.78492188 -0.44921875 2.93359375 C-0.63097656 2.29550781 -0.81273437 1.65742188 -1 1 C-0.67 0.67 -0.34 0.34 0 0 Z " fill="#16593D" transform="translate(1003,368)"/>
<path d="M0 0 C-2.57146057 2.57146057 -4.6050417 2.80117997 -8.125 3.625 C-9.76855469 4.01558594 -9.76855469 4.01558594 -11.4453125 4.4140625 C-12.28835938 4.60742188 -13.13140625 4.80078125 -14 5 C-14 4.34 -14 3.68 -14 3 C-9.03006806 0.56574762 -5.65394631 -0.34615998 0 0 Z " fill="#D7EFE8" transform="translate(354,268)"/>
<path d="M0 0 C0.33 0.99 0.66 1.98 1 3 C1.99 3.66 2.98 4.32 4 5 C0.04 6.98 0.04 6.98 -4 9 C-2.94124926 5.59687262 -1.99097846 2.98646769 0 0 Z " fill="#D2ECDF" transform="translate(341,486)"/>
<path d="M0 0 C0.99 1.32 1.98 2.64 3 4 C1.89131683 6.21736634 0.50559539 8.03617993 -1 10 C-1 9.34 -1 8.68 -1 8 C-1.66 8 -2.32 8 -3 8 C-2.690625 7.236875 -2.38125 6.47375 -2.0625 5.6875 C-1.32106407 3.81210323 -0.63771783 1.91315348 0 0 Z " fill="#E0F1E8" transform="translate(836,453)"/>
<path d="M0 0 C1.5 1.375 1.5 1.375 3 3 C3.66 3.66 4.32 4.32 5 5 C2.21176345 6.0326802 1.1322726 6.04509293 -1.75 5.0625 C-2.4925 4.711875 -3.235 4.36125 -4 4 C-4 3.01 -4 2.02 -4 1 C-2 0 -2 0 0 0 Z " fill="#156B4A" transform="translate(370,450)"/>
<path d="M0 0 C3.09592835 3.5087188 4.74194623 6.49197399 6 11 C4.68 10.67 3.36 10.34 2 10 C1.87625 9.195625 1.7525 8.39125 1.625 7.5625 C1.315625 6.2940625 1.315625 6.2940625 1 5 C0.34 4.67 -0.32 4.34 -1 4 C-0.67 2.68 -0.34 1.36 0 0 Z " fill="#D2E9E0" transform="translate(788,427)"/>
<path d="M0 0 C-2.35277269 2.72426311 -4.62496331 3.8141763 -8 5 C-8 4.34 -8 3.68 -8 3 C-8.66 2.67 -9.32 2.34 -10 2 C-6.3558226 -0.4294516 -4.28758728 -0.16179575 0 0 Z " fill="#DBEEE5" transform="translate(441,426)"/>
<path d="M0 0 C0.66 0.33 1.32 0.66 2 1 C1.01 2.485 1.01 2.485 0 4 C-0.66 4 -1.32 4 -2 4 C-2.33 4.66 -2.66 5.32 -3 6 C-3.99 6.66 -4.98 7.32 -6 8 C-6.99 7.34 -7.98 6.68 -9 6 C-6.03 4.02 -3.06 2.04 0 0 Z " fill="#DBEFE8" transform="translate(337,384)"/>
<path d="M0 0 C0.66 0.33 1.32 0.66 2 1 C2 2.98 2 4.96 2 7 C0.68 7.33 -0.64 7.66 -2 8 C-1.125 1.125 -1.125 1.125 0 0 Z " fill="#226048" transform="translate(479,343)"/>
<path d="M0 0 C1.0828125 0.37125 1.0828125 0.37125 2.1875 0.75 C-0.50091859 3.00245881 -2.45891875 4.63213958 -5.8125 5.75 C-6.4725 5.09 -7.1325 4.43 -7.8125 3.75 C-3.50480769 -0.31153846 -3.50480769 -0.31153846 0 0 Z " fill="#1C5D45" transform="translate(458.8125,332.25)"/>
<path d="M0 0 C0.66 0.99 1.32 1.98 2 3 C0.02 4.32 -1.96 5.64 -4 7 C-4.66 6.67 -5.32 6.34 -6 6 C-4.75453595 2.26360784 -3.36595047 1.81243487 0 0 Z " fill="#1A5C46" transform="translate(313,286)"/>
<path d="M0 0 C4.29 0.66 8.58 1.32 13 2 C12.67 2.99 12.34 3.98 12 5 C10.68 5 9.36 5 8 5 C8 4.01 8 3.02 8 2 C5.69 2 3.38 2 1 2 C0.67 1.34 0.34 0.68 0 0 Z " fill="#CFEBDE" transform="translate(358,561)"/>
<path d="M0 0 C-5.39068413 3.59378942 -8.53673535 4.45356243 -15 4 C-12.18438333 2.52790818 -9.38026161 1.34273182 -6.375 0.3125 C-5.59898437 0.04050781 -4.82296875 -0.23148438 -4.0234375 -0.51171875 C-2 -1 -2 -1 0 0 Z " fill="#C4E3D7" transform="translate(443,557)"/>
<path d="M0 0 C0.66 0.33 1.32 0.66 2 1 C2 1.66 2 2.32 2 3 C-0.8125 4.5625 -0.8125 4.5625 -4 6 C-4.99 5.67 -5.98 5.34 -7 5 C-2.25 1.125 -2.25 1.125 0 0 Z " fill="#DDF2EA" transform="translate(465,545)"/>
<path d="M0 0 C2.9719385 1.12451727 5.33440687 2.22293791 8 4 C8.66 4 9.32 4 10 4 C9.67 5.32 9.34 6.64 9 8 C7.68388323 7.04663979 6.37221039 6.08714226 5.0625 5.125 C4.33160156 4.59132813 3.60070312 4.05765625 2.84765625 3.5078125 C1 2 1 2 0 0 Z " fill="#235946" transform="translate(295,528)"/>
<path d="M0 0 C0.99 0.99 1.98 1.98 3 3 C1.68 5.64 0.36 8.28 -1 11 C-2.13757948 6.44968209 -1.4283779 4.36915594 0 0 Z " fill="#195C43" transform="translate(521,479)"/>
<path d="M0 0 C0 3.52032428 -0.70351351 4.4385343 -3 7 C-3.66 7 -4.32 7 -5 7 C-5.33 7.66 -5.66 8.32 -6 9 C-6.99 9 -7.98 9 -9 9 C-6 6 -3 3 0 0 Z " fill="#DAEFE7" transform="translate(353,430)"/>
<path d="M0 0 C0.99 0.33 1.98 0.66 3 1 C1.02 3.97 -0.96 6.94 -3 10 C-4.2077558 6.37673261 -3.54311128 5.35853631 -2 2 C-1.34 2 -0.68 2 0 2 C0 1.34 0 0.68 0 0 Z " fill="#DDF4E9" transform="translate(340,428)"/>
<path d="M0 0 C-2.78796658 3.83345405 -6.5612284 4.22497639 -11 5 C-11.66 4.34 -12.32 3.68 -13 3 C-11.21189234 2.30329584 -9.41937948 1.61788811 -7.625 0.9375 C-6.62726563 0.55464844 -5.62953125 0.17179687 -4.6015625 -0.22265625 C-2 -1 -2 -1 0 0 Z " fill="#CCE8DE" transform="translate(362,375)"/>
<path d="M0 0 C2.97 1.32 5.94 2.64 9 4 C8.67 4.66 8.34 5.32 8 6 C1.47692308 5.38461538 1.47692308 5.38461538 -0.9375 3.4375 C-1.288125 2.963125 -1.63875 2.48875 -2 2 C-1.34 2 -0.68 2 0 2 C0 1.34 0 0.68 0 0 Z " fill="#185A41" transform="translate(447,275)"/>
<path d="M0 0 C0.66 0.33 1.32 0.66 2 1 C1.21718695 2.33855056 0.42348123 3.67073644 -0.375 5 C-0.81585938 5.7425 -1.25671875 6.485 -1.7109375 7.25 C-2.34902344 8.11625 -2.34902344 8.11625 -3 9 C-3.66 9 -4.32 9 -5 9 C-5 7.02 -5 5.04 -5 3 C-4.360625 2.690625 -3.72125 2.38125 -3.0625 2.0625 C-1.06389179 1.1654837 -1.06389179 1.1654837 0 0 Z " fill="#E5F2EA" transform="translate(337,478)"/>
<path d="M0 0 C0.66 0.66 1.32 1.32 2 2 C-0.97 4.475 -0.97 4.475 -4 7 C-4.33 6.34 -4.66 5.68 -5 5 C-4.25 2.9375 -4.25 2.9375 -3 1 C-2.01 0.67 -1.02 0.34 0 0 Z " fill="#25664C" transform="translate(1036,477)"/>
<path d="M0 0 C3 2 3 2 3.8125 5 C3.874375 5.99 3.93625 6.98 4 8 C3.34 8.66 2.68 9.32 2 10 C1.46987262 8.71211992 0.9511671 7.41953322 0.4375 6.125 C0.14746094 5.40570313 -0.14257812 4.68640625 -0.44140625 3.9453125 C-1 2 -1 2 0 0 Z " fill="#175741" transform="translate(257,473)"/>
<path d="M0 0 C-3.64116773 3.33773709 -7.28607242 3.97864902 -12 5 C-8.12259529 0.85518807 -5.65610938 -0.15286782 0 0 Z " fill="#DBF1E9" transform="translate(412,472)"/>
<path d="M0 0 C3.6 5.4 3.6 5.4 5 8 C4.67 8.66 4.34 9.32 4 10 C3.01 10 2.02 10 1 10 C0.37542727 6.56484998 0 3.50935186 0 0 Z " fill="#DFEFE8" transform="translate(802,454)"/>
<path d="M0 0 C-2.90092502 1.93395001 -3.89674737 2.30131941 -7.1875 2.625 C-8.445625 2.74875 -9.70375 2.8725 -11 3 C-10.67 2.01 -10.34 1.02 -10 0 C-3.375 -1.125 -3.375 -1.125 0 0 Z " fill="#DDF2E9" transform="translate(411,437)"/>
<path d="M0 0 C3.0855517 1.54277585 4.7126961 2.411027 6.25 5.5625 C6.4975 6.366875 6.745 7.17125 7 8 C7.33 8.66 7.66 9.32 8 10 C7.34 10.66 6.68 11.32 6 12 C4.99466333 10.37829621 3.99588093 8.75252763 3 7.125 C2.443125 6.22007812 1.88625 5.31515625 1.3125 4.3828125 C0 2 0 2 0 0 Z " fill="#0E4E34" transform="translate(1005,430)"/>
<path d="M0 0 C0.33 0 0.66 0 1 0 C1 3.96 1 7.92 1 12 C0.67 11.34 0.34 10.68 0 10 C-0.66 10 -1.32 10 -2 10 C-1.54177532 6.53058454 -1.10868317 3.32604951 0 0 Z " fill="#DAEFE6" transform="translate(310,417)"/>
<path d="M0 0 C0.33 0 0.66 0 1 0 C1 2.64 1 5.28 1 8 C-0.32 8.33 -1.64 8.66 -3 9 C-2.01 6.03 -1.02 3.06 0 0 Z " fill="#215E48" transform="translate(824,409)"/>
<path d="M0 0 C0.33 0 0.66 0 1 0 C1.36923077 6.52307692 1.36923077 6.52307692 -0.5 8.9375 C-0.995 9.288125 -1.49 9.63875 -2 10 C-3.05236973 6.65155086 -3.20005388 5.40920111 -1.625 2.1875 C-1.08875 1.465625 -0.5525 0.74375 0 0 Z " fill="#25614B" transform="translate(844,369)"/>
<path d="M0 0 C-0.33 0.66 -0.66 1.32 -1 2 C-4.3 1.34 -7.6 0.68 -11 0 C-11 -0.33 -11 -0.66 -11 -1 C-3.57142857 -2.42857143 -3.57142857 -2.42857143 0 0 Z " fill="#C5E2D7" transform="translate(436,269)"/>
<path d="M0 0 C-0.33 0.99 -0.66 1.98 -1 3 C-1.99 3 -2.98 3 -4 3 C-4.66 4.32 -5.32 5.64 -6 7 C-6.99 6.67 -7.98 6.34 -9 6 C-3.2 0 -3.2 0 0 0 Z " fill="#D7EEE6" transform="translate(476,539)"/>
<path d="M0 0 C2.25245881 2.68841859 3.88213958 4.64641875 5 8 C4.01 8.495 4.01 8.495 3 9 C0.9375 6.75 0.9375 6.75 -1 4 C-0.75 1.6875 -0.75 1.6875 0 0 Z " fill="#1E5F44" transform="translate(689,448)"/>
<path d="M0 0 C0.66 0 1.32 0 2 0 C1.34 2.97 0.68 5.94 0 9 C-0.99 7.68 -1.98 6.36 -3 5 C-1.625 2.5 -1.625 2.5 0 0 Z " fill="#D9F0E6" transform="translate(331,445)"/>
<path d="M0 0 C0.66 0.33 1.32 0.66 2 1 C2.125 4.375 2.125 4.375 2 8 C1.34 8.66 0.68 9.32 0 10 C-0.19412181 8.52168779 -0.38012131 7.04230684 -0.5625 5.5625 C-0.66691406 4.73878906 -0.77132812 3.91507812 -0.87890625 3.06640625 C-0.91886719 2.38449219 -0.95882812 1.70257813 -1 1 C-0.67 0.67 -0.34 0.34 0 0 Z " fill="#1D5540" transform="translate(246,435)"/>
<path d="M0 0 C0.66 0 1.32 0 2 0 C1.67 1.32 1.34 2.64 1 4 C0.01 4 -0.98 4 -2 4 C-2.33 4.99 -2.66 5.98 -3 7 C-3.99 6.67 -4.98 6.34 -6 6 C-4 4 -2 2 0 0 Z " fill="#205F47" transform="translate(350,422)"/>
<path d="M0 0 C0.66 0 1.32 0 2 0 C2 1.98 2 3.96 2 6 C0.35 6.33 -1.3 6.66 -3 7 C-1.125 2.25 -1.125 2.25 0 0 Z " fill="#DCEFE8" transform="translate(861,403)"/>
<path d="M0 0 C2.25 0.25 2.25 0.25 4 1 C1.03 3.475 1.03 3.475 -2 6 C-2.66 5.34 -3.32 4.68 -4 4 C-2.25 1.9375 -2.25 1.9375 0 0 Z " fill="#DBF0E9" transform="translate(667,400)"/>
<path d="M0 0 C1.11375 0.3403125 1.11375 0.3403125 2.25 0.6875 C1.125 2.25 1.125 2.25 -0.75 3.6875 C-3.9375 3.375 -3.9375 3.375 -6.75 2.6875 C-4.29511132 0.41445492 -3.41240272 -0.38777304 0 0 Z " fill="#E3F5EF" transform="translate(349.75,379.3125)"/>
<path d="M0 0 C-2.62198774 2.15377564 -4.64404172 3.40072174 -8 4 C-8 3.34 -8 2.68 -8 2 C-8.66 1.67 -9.32 1.34 -10 1 C-3.71428571 -1.42857143 -3.71428571 -1.42857143 0 0 Z " fill="#D0E7DD" transform="translate(404,362)"/>
<path d="M0 0 C3.08494591 1.0283153 4.08268479 1.47262996 6 4 C6.6875 7.1875 6.6875 7.1875 7 10 C4.3513141 6.80331012 2.06007659 3.60513403 0 0 Z " fill="#D7F2E9" transform="translate(697,348)"/>
<path d="M0 0 C0 0.66 0 1.32 0 2 C-2.8125 3.5625 -2.8125 3.5625 -6 5 C-6.99 4.67 -7.98 4.34 -9 4 C-6.19632015 0.92930303 -4.26207314 0 0 0 Z " fill="#11533A" transform="translate(447,340)"/>
<path d="M0 0 C1.32 0.33 2.64 0.66 4 1 C0.535 3.97 0.535 3.97 -3 7 C-3.33 6.01 -3.66 5.02 -4 4 C-2.25 1.9375 -2.25 1.9375 0 0 Z " fill="#DFF3EC" transform="translate(296,295)"/>
<path d="M0 0 C3.3 0.33 6.6 0.66 10 1 C10 1.33 10 1.66 10 2 C4.06 2.495 4.06 2.495 -2 3 C-1.34 2.01 -0.68 1.02 0 0 Z " fill="#BEDBD0" transform="translate(364,264)"/>
<path d="M0 0 C2.31 1.98 4.62 3.96 7 6 C6.34 6.66 5.68 7.32 5 8 C4.67 7.01 4.34 6.02 4 5 C1.98491642 4.26676204 1.98491642 4.26676204 0 4 C0 2.68 0 1.36 0 0 Z " fill="#D2EAE2" transform="translate(287,521)"/>
<path d="M0 0 C-0.33 0.66 -0.66 1.32 -1 2 C-3.64860427 2.59355614 -6.29197322 2.74209269 -9 3 C-9 2.34 -9 1.68 -9 1 C-6.04335481 -0.4783226 -3.25770263 -0.06032783 0 0 Z " fill="#0E5138" transform="translate(1017,491)"/>
<path d="M0 0 C0.33 0.99 0.66 1.98 1 3 C-0.75 4.5625 -0.75 4.5625 -3 6 C-4.32 5.67 -5.64 5.34 -7 5 C-4.69 3.35 -2.38 1.7 0 0 Z " fill="#DAF3EA" transform="translate(1033,483)"/>
<path d="M0 0 C2.01136276 2.55991624 3.62845496 5.04590299 5 8 C4.34 8.66 3.68 9.32 3 10 C-0.00617269 6.99382731 0.40414684 4.17618402 0 0 Z " fill="#26604B" transform="translate(706,477)"/>
<path d="M0 0 C1.90318884 2.85478326 2.4619099 4.41941308 3.125 7.6875 C3.29257813 8.49574219 3.46015625 9.30398438 3.6328125 10.13671875 C3.75398437 10.75160156 3.87515625 11.36648438 4 12 C3.34 12 2.68 12 2 12 C0.86235649 7.73383684 0 4.43513689 0 0 Z " fill="#CAE3DC" transform="translate(250,460)"/>
<path d="M0 0 C2.35953094 2.35953094 2.49141413 3.77895617 3 7 C1.35 7.33 -0.3 7.66 -2 8 C-1.47731534 5.23723823 -0.89130413 2.6739124 0 0 Z " fill="#0A5137" transform="translate(1011,451)"/>
<path d="M0 0 C2 2 2 2 2 4 C0 5.625 0 5.625 -2 7 C-2.66 5.68 -3.32 4.36 -4 3 C-2.68 2.01 -1.36 1.02 0 0 Z " fill="#E5F6F0" transform="translate(694,424)"/>
<path d="M0 0 C0 3 0 3 -2 5.1875 C-2.66 5.785625 -3.32 6.38375 -4 7 C-4.66 6.01 -5.32 5.02 -6 4 C-4.03617993 2.49440461 -2.21736634 1.10868317 0 0 Z " fill="#185D44" transform="translate(456,415)"/>
<path d="M0 0 C0.66 0.66 1.32 1.32 2 2 C0.68 4.64 -0.64 7.28 -2 10 C-2.66 8.68 -3.32 7.36 -4 6 C-2.68 4.02 -1.36 2.04 0 0 Z " fill="#D8EFE6" transform="translate(838,377)"/>
<path d="M0 0 C1.65 1.32 3.3 2.64 5 4 C4.67 4.66 4.34 5.32 4 6 C1.03 5.505 1.03 5.505 -2 5 C-2 4.01 -2 3.02 -2 2 C-1.34 2 -0.68 2 0 2 C0 1.34 0 0.68 0 0 Z " fill="#105D40" transform="translate(691,344)"/>
<path d="M0 0 C2.32472205 2.85306797 3.7508258 5.54074837 5 9 C1.125 7.125 1.125 7.125 0 6 C-0.04080783 4.00041636 -0.04254356 1.99954746 0 0 Z " fill="#1E5E46" transform="translate(517,335)"/>
<path d="M0 0 C0.33 0 0.66 0 1 0 C1.02578125 0.61488281 1.0515625 1.22976563 1.078125 1.86328125 C1.2814648 6.99254591 1.2814648 6.99254591 4.0625 11.0625 C4.701875 11.371875 5.34125 11.68125 6 12 C4.33388095 12.042721 2.66617115 12.04063832 1 12 C0 11 0 11 -0.09765625 8.49609375 C-0.08605469 7.48675781 -0.07445312 6.47742188 -0.0625 5.4375 C-0.05347656 4.42558594 -0.04445313 3.41367187 -0.03515625 2.37109375 C-0.02355469 1.58863281 -0.01195312 0.80617188 0 0 Z " fill="#E6FCF5" transform="translate(310,496)"/>
<path d="M0 0 C0.99 0.66 1.98 1.32 3 2 C-2.625 5 -2.625 5 -6 5 C-5.34 3.68 -4.68 2.36 -4 1 C-2.68 1.33 -1.36 1.66 0 2 C0 1.34 0 0.68 0 0 Z " fill="#E1F8F1" transform="translate(351,485)"/>
<path d="M0 0 C-1.43344 0.53190541 -2.87195367 1.05015258 -4.3125 1.5625 C-5.51326172 1.99755859 -5.51326172 1.99755859 -6.73828125 2.44140625 C-9 3 -9 3 -12 2 C-8.51900375 -1.48099625 -4.51091121 -1.29859565 0 0 Z " fill="#E1F7EF" transform="translate(387,444)"/>
<path d="M0 0 C-1.98 1.32 -3.96 2.64 -6 4 C-6.33 3.34 -6.66 2.68 -7 2 C-9.02463255 1.34786708 -9.02463255 1.34786708 -11 1 C-9.5437328 0.63743142 -8.08488815 0.28520207 -6.625 -0.0625 C-5.40683594 -0.35833984 -5.40683594 -0.35833984 -4.1640625 -0.66015625 C-2 -1 -2 -1 0 0 Z " fill="#25654C" transform="translate(402,441)"/>
<path d="M0 0 C0.66 0.33 1.32 0.66 2 1 C2 1.99 2 2.98 2 4 C0.35 4.33 -1.3 4.66 -3 5 C-3.66 4.01 -4.32 3.02 -5 2 C-2.625 0.9375 -2.625 0.9375 0 0 Z " fill="#D8EFE5" transform="translate(378,417)"/>
<path d="M0 0 C2.64465038 3.1254959 3.84414715 6.08788267 5 10 C4.01 9.67 3.02 9.34 2 9 C2 7.68 2 6.36 2 5 C1.34 5 0.68 5 0 5 C0 3.35 0 1.7 0 0 Z " fill="#DAF2ED" transform="translate(774,399)"/>
<path d="M0 0 C0.33 0 0.66 0 1 0 C0.67 3.96 0.34 7.92 0 12 C-2.1519437 8.77208445 -2.20086443 7.71599191 -2 4 C-1.34 4 -0.68 4 0 4 C0 2.68 0 1.36 0 0 Z " fill="#0B5137" transform="translate(248,383)"/>
<path d="M0 0 C2.92540704 0.62687294 5.4835249 1.35127493 8 3 C8.61328125 5.07421875 8.61328125 5.07421875 9 7 C7.4972763 6.02501855 5.99788037 5.04490611 4.5 4.0625 C3.6646875 3.51722656 2.829375 2.97195313 1.96875 2.41015625 C1.3190625 1.94480469 0.669375 1.47945313 0 1 C0 0.67 0 0.34 0 0 Z " fill="#DDF4EE" transform="translate(473,288)"/>
<path d="M0 0 C3.96 0 7.92 0 12 0 C8.96474514 2.02350324 7.80573798 2.32124018 4.3125 2.625 C3.50425781 2.69976563 2.69601562 2.77453125 1.86328125 2.8515625 C1.24839844 2.90054688 0.63351562 2.94953125 0 3 C0 2.01 0 1.02 0 0 Z " fill="#185F43" transform="translate(432,555)"/>
<path d="M0 0 C4.05606165 0.46800711 7.46588679 0.87953208 11 3 C8.83032311 3.95465783 7.43671207 4.14401212 5.17578125 3.3984375 C3.4315257 2.64129615 1.71372869 1.82390802 0 1 C0 0.67 0 0.34 0 0 Z " fill="#206049" transform="translate(316,544)"/>
<path d="M0 0 C0.99 0.66 1.98 1.32 3 2 C0.03 4.475 0.03 4.475 -3 7 C-2.25 2.25 -2.25 2.25 0 0 Z " fill="#276852" transform="translate(355,464)"/>
<path d="M0 0 C1.98 0.99 3.96 1.98 6 3 C5.67 3.66 5.34 4.32 5 5 C3.35 4.67 1.7 4.34 0 4 C0 2.68 0 1.36 0 0 Z " fill="#1B5F46" transform="translate(1027,415)"/>
<path d="M0 0 C1.32 0.66 2.64 1.32 4 2 C3.67 2.99 3.34 3.98 3 5 C2.34 5 1.68 5 1 5 C0.67 6.32 0.34 7.64 0 9 C-1.15941038 5.52176885 -0.70820884 3.54104422 0 0 Z " fill="#0F6545" transform="translate(787,416)"/>
<path d="M0 0 C-2.97 1.65 -5.94 3.3 -9 5 C-8.67 3.68 -8.34 2.36 -8 1 C-4.70594381 -0.82039948 -3.63772813 -1.21257604 0 0 Z " fill="#DAEFE4" transform="translate(361,416)"/>
<path d="M0 0 C-4.625 4 -4.625 4 -8 4 C-7.67 3.01 -7.34 2.02 -7 1 C-4.53721199 -0.231394 -2.7204945 -0.07159196 0 0 Z " fill="#1D5C45" transform="translate(339,383)"/>
<path d="M0 0 C0.66 0.33 1.32 0.66 2 1 C1.6875 2.875 1.6875 2.875 1 5 C0.01 5.66 -0.98 6.32 -2 7 C-2.6875 5.1875 -2.6875 5.1875 -3 3 C-1.5625 1.25 -1.5625 1.25 0 0 Z " fill="#1E674E" transform="translate(467,366)"/>
<path d="M0 0 C0.99 0.33 1.98 0.66 3 1 C3.73046875 3.06640625 3.73046875 3.06640625 4.1875 5.5625 C4.34605469 6.38878906 4.50460937 7.21507812 4.66796875 8.06640625 C4.77753906 8.70449219 4.88710937 9.34257812 5 10 C4.34 10 3.68 10 3 10 C2.01 6.7 1.02 3.4 0 0 Z " fill="#C8E4DA" transform="translate(1037,358)"/>
<path d="M0 0 C2.31 0 4.62 0 7 0 C7 0.66 7 1.32 7 2 C7.66 2.33 8.32 2.66 9 3 C2.84765625 2.4140625 2.84765625 2.4140625 1 2 C0.67 1.34 0.34 0.68 0 0 Z " fill="#185740" transform="translate(658,363)"/>
<path d="M0 0 C1.32 0.33 2.64 0.66 4 1 C4 1.66 4 2.32 4 3 C3.34 3 2.68 3 2 3 C2 3.66 2 4.32 2 5 C1.34 5 0.68 5 0 5 C-0.33 5.66 -0.66 6.32 -1 7 C-2 4 -2 4 -1.0625 1.8125 C-0.5365625 0.9153125 -0.5365625 0.9153125 0 0 Z " fill="#125E42" transform="translate(475,354)"/>
<path d="M0 0 C2.0625 2.3125 2.0625 2.3125 4 5 C3.67 5.99 3.34 6.98 3 8 C2.34 8 1.68 8 1 8 C-0.35439668 5.29120665 -0.06501451 2.99066732 0 0 Z " fill="#1E614A" transform="translate(513,329)"/>
<path d="M0 0 C1.32 0 2.64 0 4 0 C4.33 1.32 4.66 2.64 5 4 C2.69 3.67 0.38 3.34 -2 3 C-1.34 2.01 -0.68 1.02 0 0 Z " fill="#D3EDE4" transform="translate(474,323)"/>
<path d="M0 0 C0.66 0.33 1.32 0.66 2 1 C-1.465 3.97 -1.465 3.97 -5 7 C-5 6.01 -5 5.02 -5 4 C-2.5 1.8125 -2.5 1.8125 0 0 Z " fill="#E1F8F1" transform="translate(322,500)"/>
<path d="M0 0 C0 0.99 0 1.98 0 3 C-2.64 2.67 -5.28 2.34 -8 2 C-4.91190305 0.23537317 -3.76687864 0 0 0 Z " fill="#2D6850" transform="translate(402,477)"/>
<path d="M0 0 C1.670625 0.061875 1.670625 0.061875 3.375 0.125 C0.98926621 2.01713369 -0.69675348 3.14891783 -3.625 4.125 C-4.285 3.465 -4.945 2.805 -5.625 2.125 C-3.625 0.125 -3.625 0.125 0 0 Z " fill="#206145" transform="translate(366.625,457.875)"/>
<path d="M0 0 C-0.99 0.33 -1.98 0.66 -3 1 C-3.73323796 3.01508358 -3.73323796 3.01508358 -4 5 C-4.66 4.67 -5.32 4.34 -6 4 C-6 2.68 -6 1.36 -6 0 C-2.25 -1.125 -2.25 -1.125 0 0 Z " fill="#085438" transform="translate(1023,410)"/>
<path d="M0 0 C-1 2 -1 2 -3.8125 3.1875 C-6.85961076 3.96421451 -8.13749363 4.10096399 -11 3 C-7.16674383 0.29417212 -4.67461851 -0.32613618 0 0 Z " fill="#15553A" transform="translate(429,400)"/>
<path d="M0 0 C-3.6441774 2.4294516 -5.71241272 2.16179575 -10 2 C-6.19832777 -0.53444815 -4.31588991 -1.33941411 0 0 Z " fill="#CEE8DF" transform="translate(416,358)"/>
<path d="M0 0 C0.99 0.99 1.98 1.98 3 3 C2.34 3 1.68 3 1 3 C0.67 3.99 0.34 4.98 0 6 C-0.99 6.33 -1.98 6.66 -3 7 C-1.125 2.25 -1.125 2.25 0 0 Z " fill="#225D48" transform="translate(266,333)"/>
<path d="M0 0 C1.0625 1.875 1.0625 1.875 2 4 C1.67 4.66 1.34 5.32 1 6 C-0.32 5.67 -1.64 5.34 -3 5 C-2.01 3.35 -1.02 1.7 0 0 Z " fill="#1D6047" transform="translate(280,314)"/>
<path d="M0 0 C3.73487777 0.4979837 5.81237635 0.87491756 9 3 C9 3.66 9 4.32 9 5 C5.54074837 3.7508258 2.85306797 2.32472205 0 0 Z " fill="#D6F1E9" transform="translate(459,280)"/>
</svg>
